<svg xmlns="http://www.w3.org/2000/svg" width="17.493" height="13.411" viewBox="0 0 17.493 13.411"><g transform="translate(-56 31.5)"><path d="M12.771,10.5a3.04,3.04,0,0,1,.155,2c.9.768,1.208,2.633.774,4.158a15.072,15.072,0,0,1,3.792.346,17.276,17.276,0,0,0-3.366-.27c-.225.015-.558-.009-.542.308a18.372,18.372,0,0,1,3.87.578,28.511,28.511,0,0,0-3.87-.5,3.7,3.7,0,0,1-3.328,1.809c.172.374.5.516.581,1.116.12.9-.187,2.212.116,2.81.145.287.382.294.542.539-.391.463-1.361-.052-1.471-.539-.189-.835.288-2.129-.232-2.695a13.776,13.776,0,0,0,.039,3c.1.32.389.443.31.732-1.818.184-1.058-2.353-1.355-3.85-.274.02-.154.411-.155.578-.008,1.462.3,3.468-1.277,3.273-.046-.307.211-.412.31-.693.287-.823-.054-2.049.078-3.042-.6.454.063,2.037-.31,2.849A1.159,1.159,0,0,1,6,23.474c.068-.348.428-.292.58-.616.213-.452,0-1.1.078-1.771a2.119,2.119,0,0,1-2.4-.732,7.46,7.46,0,0,0-.465-.962c-.227-.278-.591-.316-.7-.693,1.379-.332,1.432,1.419,2.67,1.462a3.012,3.012,0,0,0,.929-.192,1.638,1.638,0,0,1,.619-1c-1.541-.211-2.814-.691-3.406-1.847a21.122,21.122,0,0,0-3.87.539,12.762,12.762,0,0,1,3.832-.578c-.084-.5-.82-.366-1.277-.346A21.161,21.161,0,0,0,0,17.006,12.157,12.157,0,0,1,3.677,16.7c-.405-1.271-.265-3.29.619-4.042A2.762,2.762,0,0,1,4.451,10.5a4.024,4.024,0,0,1,2.206.886,7.687,7.687,0,0,1,2.632-.27c.443.024.9.224,1.238.192s.688-.4,1.006-.539A3.1,3.1,0,0,1,12.771,10.5Z" transform="translate(56 -42)" fill="#212121"/></g></svg>