<svg xmlns="http://www.w3.org/2000/svg" width="13.66" height="11.096" viewBox="0 0 13.66 11.096"><g transform="translate(0 0)"><g transform="translate(0 0)"><path d="M13.661,58.754a5.6,5.6,0,0,1-1.609.441,2.814,2.814,0,0,0,1.232-1.549,5.649,5.649,0,0,1-1.781.68,2.8,2.8,0,0,0-4.775,2.555A7.956,7.956,0,0,1,.953,57.953a2.805,2.805,0,0,0,.867,3.74,2.8,2.8,0,0,1-1.269-.352v.035A2.805,2.805,0,0,0,2.8,64.125a2.839,2.839,0,0,1-.738.1,2.689,2.689,0,0,1-.528-.052,2.8,2.8,0,0,0,2.617,1.946,5.622,5.622,0,0,1-3.48,1.2A5.956,5.956,0,0,1,0,67.276a7.921,7.921,0,0,0,4.3,1.261,7.918,7.918,0,0,0,7.973-7.973l-.009-.363A5.6,5.6,0,0,0,13.661,58.754Z" transform="translate(-0.001 -57.441)" fill="#212121"/></g></g></svg>