<svg xmlns="http://www.w3.org/2000/svg" width="270.917" height="270.92" viewBox="0 0 270.917 270.92"><g transform="translate(-0.002 0.001)"><g transform="translate(0.002 -0.001)"><path d="M270.468,165.2l.041-.014-44.48-97.052,10.787-5.369-4.037-8.082L222.263,59.92l-1.422-3.1a4.515,4.515,0,0,0-8.209,0l-1.269,2.772a58.082,58.082,0,0,0-24.428-5.4H149.007V45.155h9.031V36.124h-7.762l3.247-12.99a18.617,18.617,0,1,0-36.122,0l3.246,12.99h-7.762v9.031h9.031v9.031H84.009A58.084,58.084,0,0,0,59.559,59.6L58.29,56.831a4.515,4.515,0,0,0-8.209,0l-1.422,3.1-10.516-5.26-4.037,8.091,10.787,5.391L.413,165.185A4.41,4.41,0,0,0,0,167.068a31.643,31.643,0,0,0,31.607,31.607H76.762a31.643,31.643,0,0,0,31.607-31.607,4.414,4.414,0,0,0-.452-1.869l-44.6-97.417a49.114,49.114,0,0,1,20.694-4.565h37.906v165.2L106.5,243.828H90.308A22.6,22.6,0,0,0,67.731,266.4a4.515,4.515,0,0,0,4.515,4.515H198.675a4.515,4.515,0,0,0,4.515-4.515,22.6,22.6,0,0,0-22.576-22.576H164.422l-15.415-15.415V63.216h37.928a49.114,49.114,0,0,1,20.694,4.565l-44.665,97.4a4.41,4.41,0,0,0-.411,1.883,31.643,31.643,0,0,0,31.607,31.607h45.153a31.643,31.643,0,0,0,31.607-31.607A4.4,4.4,0,0,0,270.468,165.2ZM76.762,189.644H31.609A22.613,22.613,0,0,1,9.484,171.583h89.4A22.612,22.612,0,0,1,76.762,189.644Zm20.057-27.092H11.552L53.03,72.061a4.46,4.46,0,0,0,2.312,0ZM127.907,12.717a9.88,9.88,0,0,1,15.108,0,9.531,9.531,0,0,1,1.747,8.227l-3.8,15.18H129.957l-3.8-15.18A9.533,9.533,0,0,1,127.907,12.717Zm3.039,41.468V45.155h9.031v9.031Zm9.031,9.031v162.55h-9.031V63.216Zm40.638,189.642a13.572,13.572,0,0,1,12.774,9.031H77.534a13.572,13.572,0,0,1,12.774-9.031Zm-28.961-9.031H119.269L128.3,234.8h14.323ZM215.571,72.075a3.083,3.083,0,0,0,2.285-.095l41.514,90.572H174.1Zm23.741,117.569H194.159a22.613,22.613,0,0,1-22.125-18.061h89.4A22.612,22.612,0,0,1,239.312,189.644Z" transform="translate(-0.002 0.001)" fill="#fff"/></g></g></svg>