<svg xmlns="http://www.w3.org/2000/svg" width="7.237" height="13.385" viewBox="0 0 7.237 13.385"><g transform="translate(0 0)"><path d="M29.041,0,27.305,0A3.048,3.048,0,0,0,24.1,3.294V4.813H22.35a.273.273,0,0,0-.273.273v2.2a.273.273,0,0,0,.273.273H24.1v5.553a.273.273,0,0,0,.273.273h2.277a.273.273,0,0,0,.273-.273V7.559h2.041a.273.273,0,0,0,.273-.273v-2.2a.273.273,0,0,0-.273-.273H26.918V3.525c0-.619.147-.933.954-.933h1.169a.273.273,0,0,0,.273-.273V.276A.273.273,0,0,0,29.041,0Z" transform="translate(-22.077)" fill="#212121"/></g></svg>