<svg xmlns="http://www.w3.org/2000/svg" width="270" height="270" viewBox="0 0 270 270"><path d="M256.5,121.5h-.18A120.924,120.924,0,0,0,175.293,11.457,13.5,13.5,0,0,0,162,0H108A13.5,13.5,0,0,0,94.707,11.457,120.924,120.924,0,0,0,13.68,121.5H13.5A13.5,13.5,0,0,0,0,135v9a13.5,13.5,0,0,0,13.5,13.5h243A13.5,13.5,0,0,0,270,144v-9A13.5,13.5,0,0,0,256.5,121.5ZM94.5,21.11V99a4.5,4.5,0,0,0,9,0V13.5A4.5,4.5,0,0,1,108,9h22.5v99a4.5,4.5,0,0,0,9,0V9H162a4.5,4.5,0,0,1,4.5,4.5V99a4.5,4.5,0,0,0,9,0V21.11A111.96,111.96,0,0,1,247.32,121.5H22.68A111.96,111.96,0,0,1,94.5,21.11ZM261,144a4.5,4.5,0,0,1-4.5,4.5H13.5A4.5,4.5,0,0,1,9,144v-9a4.5,4.5,0,0,1,4.5-4.5h243A4.5,4.5,0,0,1,261,135Z" fill="#fed83c"/><path d="M265.5,338H247.05A22.54,22.54,0,0,0,225,320H45a22.527,22.527,0,0,0-22.5,22.5H4.5A4.5,4.5,0,0,0,0,347v36a4.5,4.5,0,0,0,4.5,4.5H23.85A31.541,31.541,0,0,0,54,410H81a58.819,58.819,0,0,0,50.256-28.534,4.414,4.414,0,0,1,7.488,0A58.819,58.819,0,0,0,189,410h27a31.5,31.5,0,0,0,31.14-27H265.5a4.5,4.5,0,0,0,4.5-4.5v-36A4.5,4.5,0,0,0,265.5,338Zm-243,40.5H9V365H22.5Zm0-22.5H9v-4.5H22.5Zm216,22.5A22.527,22.527,0,0,1,216,401H189a49.787,49.787,0,0,1-42.534-24.151,13.41,13.41,0,0,0-22.95,0A49.788,49.788,0,0,1,81,401H54a22.527,22.527,0,0,1-22.5-22.5v-36A13.5,13.5,0,0,1,45,329H225a13.5,13.5,0,0,1,13.5,13.5ZM261,374H247.5V360.5H261Zm0-22.5H247.5V347H261Z" transform="translate(0 -140)" fill="#fed83c"/></svg>