<svg xmlns="http://www.w3.org/2000/svg" width="41.654" height="54.547" viewBox="0 0 41.654 54.547"><g transform="translate(2207.343 -2565.252)"><path d="M-2021,2579.38l.014-12.98,12.952.028Z" transform="translate(-158.87)" fill="#702340" stroke="#702340" stroke-width="1.007"/><path d="M-2099.619,2580.2v-12.9l-12.881,12.9Z" transform="translate(-80.378 -0.772)" fill="#c03035" stroke="#c03035" stroke-width="1.007"/><path d="M-2112.4,2579.338v-12.91l12.867-.028Z" transform="translate(-80.464)" fill="#cb5833" stroke="#cb5833" stroke-width="1.007"/><path d="M-2204.3,2579.638h12.995V2566.7Z" transform="translate(-1.63 -0.257)" fill="#00aeef" stroke="#00aeef" stroke-width="0.99"/><path d="M-2205.3,2670.952l.071-12.952h12.952Z" transform="translate(-0.772 -78.577)" fill="#0e76bc" stroke="#0e76bc" stroke-width="1.007"/><path d="M-2191.377,2670.809V2657.8l-13.023,12.98Z" transform="translate(-1.544 -78.406)" fill="#283891" stroke="#283891" stroke-width="1.007"/><path d="M-2205.7,2763.524h13.222V2750.6Z" transform="translate(-0.429 -158.012)" fill="#b1ad4e" stroke="#b1ad4e" stroke-width="0.99"/><path d="M-2205.9,2762.751l.071-12.952,13.065.014Z" transform="translate(-0.257 -157.326)" fill="#d4c730" stroke="#d4c730" stroke-width="1.007"/><path d="M-2111.9,2724.281l.014-12.881,12.866.028Z" transform="translate(-80.893 -124.385)" fill="#205450" stroke="#205450" stroke-width="1.007"/><path d="M-2206.2,2855.352l.071-12.952h13.123Z" transform="translate(0 -236.76)" fill="#6c825f" stroke="#6c825f" stroke-width="1.007"/></g></svg>