<svg xmlns="http://www.w3.org/2000/svg" width="298.305" height="465.004" viewBox="0 0 298.305 465.004"><path d="M3.526,472.252c1.558-.311,4.185-4.9,10.355-18.106l8.268-17.689.1-10.489c.076-8.3,1.013-14.6,4.482-30.164,4.383-19.667,4.385-19.685,4.634-43.492.172-16.457-.151-25.366-1.047-28.828a24.719,24.719,0,0,1-.361-10.755c1.306-8.027,2.033-8.027,2.033,0,0,3.763.466,7.13,1.036,7.482a3.922,3.922,0,0,1,1.061,2.909c.024,2.174,1.6,4.457,9.058,13.128A66.109,66.109,0,0,0,53.7,345.042a70.894,70.894,0,0,1,8.389,6.322,3.944,3.944,0,0,0,2.385,1.464c1.344,0-6.76-7.414-11-10.058-1.566-.977-2.848-2.385-2.848-3.128s-1.158-1.88-2.574-2.525c-3.509-1.6-6.5-8.228-8.279-18.344-.818-4.651-1.779-8.929-2.137-9.508a2.576,2.576,0,0,1,.621-2.584c1.017-1.226.9-2.347-.57-5.616-1.714-3.8-1.724-4.263-.147-6.671a12.934,12.934,0,0,1,3.791-3.709c1.153-.617,5-4.026,8.543-7.575,8.375-8.382,16.156-12.336,41.137-20.9,20.424-7,28.372-10.64,42.456-19.436,4.272-2.668,9.325-5.159,11.23-5.536l3.464-.686-.658,7.139c-.362,3.926-.9,8.7-1.2,10.605-.532,3.4-.58,3.432-2.629,1.577-1.926-1.743-1.9-1.523.325,2.863,1.327,2.614,2.689,4.6,3.029,4.415s.926-5.83,1.3-12.543,1.67-19.757,2.871-28.986l2.185-16.781-5.559-20.158c-5.474-19.848-5.6-20.15-8.148-19.646-9.066,1.791-19.675-17.665-19.675-36.083,0-7.907.291-9.41,2.193-11.312,1.612-1.612,2.4-1.857,2.977-.925.559.9.987.939,1.492.122,1.384-2.239,2.353-1.068,4.222,5.1,1.254,4.142,2.183,5.8,2.753,4.919.625-.967,1.039-.679,1.513,1.053,1.268,4.632,5.076,10.98,7.756,12.931a37.183,37.183,0,0,0,8.284,3.782c6.047,1.962,7.326,3.937,8.421,13,.708,5.864,7.8,28.006,8.69,27.119.214-.214-.342-2.443-1.236-4.952-1.767-4.958-6.68-27.126-6.68-30.142,0-1.666,1.072-1.862,10.18-1.862,11.8,0,11.429.306,14.148-11.809,1.97-8.778,6.061-16.545,9.552-18.136a5.283,5.283,0,0,1,7.541,4.774c0,1.508,1.48,5.952,3.289,9.877,2.76,5.987,3.451,6.834,4.295,5.26a24.238,24.238,0,0,1,1.324-2.26c.175-.212,2.553.953,5.284,2.589,4.409,2.64,5.894,2.965,13.25,2.895,10.835-.1,16.188-1.735,21.1-6.433,3.4-3.247,4.132-4.729,4.734-9.539,1.178-9.415,2.466-12.345,6.1-13.869,2.2-.925,3.9-1.054,5.185-.394,1.444.741,2.4.453,3.924-1.18,2.639-2.832,3.334-2.737,6.371.872,5.181,6.157,4.5,14.852-2.414,30.606-4.505,10.273-7.578,14-13.637,16.528-2.115.884-4.369,2.584-5.008,3.778-2.1,3.92-3.411,30.325-2.091,42.052,1.649,14.653,2.374,16.3,9.08,20.586,4.1,2.621,5.387,3.973,4.652,4.876-.56.687-1.989,4.533-3.177,8.545-2.166,7.315-4.487,10.41-10.691,14.253-3.532,2.188-16.863,7.484-21.189,8.418l-3.275.707.507-4.463a26.512,26.512,0,0,1,1.593-6.71c.768-1.589.745-3.225-.079-5.591a26.671,26.671,0,0,1-1.166-7.3c0-2.933-.368-3.814-1.426-3.408-.881.338-1.657-.366-2.031-1.845a20.2,20.2,0,0,0-3.715-6.016l-3.109-3.624,3.678,9.15c4.472,11.124,5.679,18.889,4.6,29.584-.89,8.829-1.476,10.454-3.775,10.454-1.026,0-1.351-.749-1.01-2.33.276-1.281.767-5.359,1.092-9.061l.59-6.731-2.648,5.3c-2.7,5.395-6.277,9.495-7.352,8.42-.327-.327-.074-1.57.564-2.761.865-1.616.838-3.239-.108-6.394-.92-3.071-.96-4.72-.145-6.024.891-1.427.693-2.063-.966-3.1-2.1-1.312-2.189-4.815-.248-9.73.634-1.6.345-1.766-2.063-1.162-2.637.662-7.457-.95-8.957-2.995a3.584,3.584,0,0,0-2.071-1.066,9.053,9.053,0,0,1-2.855-1.1c-1.36-.849-1.217.434.583,5.232.933,2.488-2.089,2.682-3.956.254-1.048-1.363-1.9-2.013-1.9-1.443a7.545,7.545,0,0,0,1.53,3.046,7.413,7.413,0,0,1,1.52,3.424c0,3.139,6.588,14.481,10.509,18.093,4.514,4.158,4.77,6.334.8,6.793-7.024.812-6.848.555-10.935,15.932-.446,1.676,1.319,3.657,2.345,2.632a11.667,11.667,0,0,0,.931-3.838,11.434,11.434,0,0,1,1.619-4.771c1.391-1.676,5.7-1.929,6.65-.391a1.14,1.14,0,0,0,1.5.529c1.342-.829,2.813,1.706,3.47,5.98.43,2.8.2,4.093-.8,4.475-2.381.914-4.137,6.336-2.637,8.143a3.508,3.508,0,0,1,.676,3.106c-.331.862-.135,1.566.434,1.566s1.325.815,1.678,1.812a13.845,13.845,0,0,0,1.892,3.365,20.945,20.945,0,0,1,2.439,5.1c1.081,3.218.91,3.973-1.873,8.25-1.684,2.589-2.893,4.877-2.686,5.084s1.581-.414,3.055-1.379c2.845-1.864,3.748-.587,1.125,1.59a4.216,4.216,0,0,0-1.553,2.576,9.016,9.016,0,0,1-1.917,3.756c-1.054,1.358-3.178,6.279-4.719,10.935s-3.461,9.013-4.267,9.681-2.669,3.845-4.139,7.057a37.6,37.6,0,0,1-7.693,10.511,103.766,103.766,0,0,0-9.522,10.525c-2.477,3.22-8.114,10.083-12.528,15.25s-8.025,10.055-8.025,10.861a2.469,2.469,0,0,1-1.553,2.063c-2.326.893-1.987-3.444,1.164-14.872,7.152-25.94,9.7-35.9,9.674-37.8-.058-4.271-1.874,1.192-7.054,21.228-5.252,20.312-8.469,36.649-14.833,75.325l-3.449,20.961-55.058.008-55.058.008,3.438-6.99c3.819-7.765,8.794-13.884,22.516-27.7a210.589,210.589,0,0,0,31.621-41.583c8.322-14.148,30.278-55.679,30.278-57.272,0-2.337,24.846-.053,27.959,2.57,2.024,1.7,18.052,9.819,19.4,9.819a10.094,10.094,0,0,0,3.667-2.071l2.633-2.071,7.086,3.212c16.251,7.368,20.979,7.428,5.791.074-7.991-3.869-13.611-5.713-32.36-10.619-2.563-.671-6.935-2.091-9.717-3.157a29.862,29.862,0,0,0-6.213-1.872c-.636.036-.04.512,1.324,1.058,5.547,2.219.029,2.025-20.084-.7-3.714-.5-3.942-.413-2.208.879,1.854,1.381,1.86,1.586.137,4.99a55.217,55.217,0,0,1-4.166,6.717,16.061,16.061,0,0,0-2.75,5.7c-.21,1.39-.87,2.438-1.467,2.33s-2.127,3.037-3.4,6.99-2.765,7.187-3.316,7.187c-1.275,0-2.569-3.425-4.594-12.153-1.123-4.841-3.629-10.28-8.3-18.013-8.881-14.7-10.72-19.273-12.277-30.516-1.277-9.225-1.214-14.426.272-22.346.073-.388,1.181-.907,2.462-1.153,2.147-.413,2.122-.46-.314-.59-6.476-.345-18.7,8.545-22.8,16.577-2.079,4.076-2.082,4.16-.114,3.535,1.27-.4,2.228-.087,2.59.856.316.823,1.885,2.127,3.488,2.9,1.872.9,2.925,2.221,2.944,3.691a5.875,5.875,0,0,0,1.294,3.553A4.2,4.2,0,0,1,71.337,319c0,.529,1.514,2.724,3.365,4.878,4.8,5.586,7.11,9.522,18.034,30.744,7.863,15.276,9.589,19.424,9.045,21.746-1.391,5.944-2.748,5.953-8.4.059-7.872-8.214-15.428-15.164-13.081-12.031a83.349,83.349,0,0,0,7.852,8.048A52.342,52.342,0,0,1,96,381.218l2.059,3.489-4.618,8.138c-2.54,4.476-5.538,9.07-6.662,10.209-2.044,2.071-2.045,2.07-6.247-.343-7.729-4.44-20.139-3.98-30.423,1.129-5.5,2.734-9.773,6.975-9.809,9.742-.016,1.234-.611,2.452-1.323,2.706s-1.022.76-.689,1.123,2.682-.957,5.219-2.934c5.817-4.532,11.929-6.726,20.887-7.5,6.623-.572,18.334,1.181,18.334,2.742s-3.5,5.392-6.24,6.81c-2,1.033-2.8,2.088-2.4,3.14.4,1.036-1.5,3.682-5.472,7.64l-6.08,6.055-7.766.683c-15.421,1.356-23.489,4.17-28.28,9.863-1.459,1.733-3.134,3.152-3.722,3.152s-.8.7-.474,1.553.073,1.553-.567,1.553-1.941,1.631-2.891,3.624-2.108,3.624-2.572,3.624-.844.707-.844,1.572-1.224,3.913-2.719,6.773c-3.106,5.939-2.746,7.984.5,2.841,4.233-6.708,24.938-23.054,35.766-28.236A77.29,77.29,0,0,1,59.428,436.1l3.107-.742L60.549,437.6a36.348,36.348,0,0,1-6.274,4.954,20.82,20.82,0,0,0-5.888,5.5c-1.187,2.069-3.177,3.235-7.706,4.516-6.748,1.909-18.606,10.557-23.063,16.822-2.467,3.467-2.7,3.552-9.354,3.414-3.753-.078-5.885-.329-4.737-.558ZM39.22,427.647c-.022-1.076-1.211-2.592-3.35-4.268-1.453-1.14-2.12-1.166-3.365-.133-2.347,1.948-1.9,2.949,1.812,4.019C38.709,428.533,39.239,428.575,39.22,427.647Zm72.449-111.06c.89-27.809,1.321-28.918,12-30.842l6.179-1.114-6.213.181c-3.417.1-12.341-.215-19.83-.7-8.04-.521-14.3-.5-15.295.057-1.139.637.058.859,3.725.691,2.972-.137,6.127.2,7.01.752,1.235.768.887.968-1.5.862-1.709-.076-4.5-.046-6.213.066l-3.107.2,3.406.982c3.583,1.033,7.049,6.047,4.717,6.824-.825.275-.619,2.217.7,6.564a128.127,128.127,0,0,1,3.085,13.671c1.9,11.708,4.924,23.229,6.886,26.222l1.79,2.731.977-2.444C110.517,339.951,111.277,328.832,111.668,316.587Zm64.874,16.434c.529-3.508.4-4.263-.566-3.358-1.322,1.237-3.12,7.784-3.092,11.259s2.865-2.639,3.658-7.9Zm-42.831-.381c-1.86-.808-3.647-2.161-3.971-3.006s1.832-7.971,4.793-15.835c5.888-15.641,7.877-19.993,9.135-19.993,1.291,0,30.249,29.034,30.21,30.289-.013.427-1.306.784-2.872.793-2.219.012-2.5.237-1.294,1.02,1.825,1.18,10.325,1.391,10.421.259.036-.427.153-2.874.259-5.436.147-3.552,1.884-7.828,7.306-17.987l7.113-13.327,4.278.539a17.268,17.268,0,0,0,6.33-.233c1.442-.542.1-.993-4.51-1.515-3.609-.408-6.689-.6-6.843-.42-1.154,1.327-11.448,20.477-13.493,25.1-1.4,3.173-3.1,5.769-3.765,5.769-1.342,0-7.091-5.03-22.179-19.408l-10.044-9.57,1.172-9.139a115.193,115.193,0,0,0,1.059-12.176c-.241-6.451-3.094,11.936-3.173,20.452-.02,2.136-.625,4.04-1.375,4.328s-4.207,7.886-7.71,16.9-7.046,16.9-7.872,17.532a5.489,5.489,0,0,0-1.5,3.883c0,2.642.2,2.732,5.954,2.693l5.954-.04-3.381-1.469Zm73.279-1.556c0-.57-.205-1.036-.457-1.036s-.745.466-1.1,1.036-.147,1.036.457,1.036A1.071,1.071,0,0,0,206.99,331.085ZM56.965,320.556a111.95,111.95,0,0,1-9.419-23.126l-1.8-6.213-.776,5.533c-.513,3.654-.387,5.922.37,6.679a4.678,4.678,0,0,1,1.146,2.884,4.431,4.431,0,0,0,1.47,2.957c.809.671,2.3,3.534,3.319,6.362,1.95,5.423,7.791,13.44,8.419,11.556.2-.609-1.024-3.593-2.726-6.631Zm120.349-15.567c.589-2.253.806-2.243-4.077-.2-3.673,1.535-3.832,1.767-2.084,3.045C173.387,309.466,176.522,308.02,177.314,304.989Zm4.646-6.309c.884-1.065.328-1.247-2.721-.887-3.135.37-3.456.6-1.761,1.267C180.4,300.209,180.713,300.182,181.96,298.68Zm2.049-7.49c-.319-.319-.9.256-1.287,1.277-.562,1.476-.443,1.595.58.58.708-.7,1.026-1.538.707-1.857Zm.631-5.3c1.052-2.742-.309-3.023-2.761-.571l-2.272,2.272h2.19a3.182,3.182,0,0,0,2.843-1.7Zm23.105-1a2.083,2.083,0,0,0-1.985-.082c-.826.331-.581.576.626.626,1.092.045,1.7-.2,1.359-.544Zm-22.242-4.2a4,4,0,0,0-2.589,0c-.712.287-.129.522,1.294.522S186.215,280.981,185.5,280.694ZM196.5,267.4c-.093-4.505-.209-4.774-.9-2.071-1.224,4.812-1.224,10.7,0,8.8C196.151,273.277,196.555,270.248,196.5,267.4Zm-56.475-20.568c-.359-2.215-1.02-3.5-1.535-2.987s-.4,2.348.265,4.257c.643,1.844,1.334,3.188,1.535,2.987S140.368,248.972,140.021,246.832Zm79.4-3.188a2.739,2.739,0,0,0-1.036-2.132c-.57-.352-1.036.319-1.036,1.492s.466,2.132,1.036,2.132S219.416,244.465,219.416,243.644Zm15.921-9.769c-.364-1.819-.877-3.092-1.141-2.828s-.158,1.944.235,3.734.907,3.063,1.141,2.828S235.7,235.694,235.338,233.875ZM229.1,218.438c-.327-1.25-1.009-2.017-1.515-1.7s-.43,1.486.2,2.666c1.392,2.6,2.108,2.076,1.313-.962Zm4.376-6.978c-2.128-1.61-3.317-1.354-2.189.471A3.047,3.047,0,0,0,233.716,213C235.253,212.973,235.223,212.785,233.472,211.46Zm-12.988-4.082a3.785,3.785,0,0,1-.6-3.39c.546-1.433.423-1.556-.569-.571s-2.018.593-4.757-1.812c-3.045-2.674-4.252-3.054-9.411-2.964-9.76.17-12.382,1.745-3.105,1.865,7.965.1,8.008.118,13.311,4.828,4.928,4.377,8.13,5.651,5.136,2.044Zm3.593-.556c.352-.57-.114-1.036-1.036-1.036s-1.388.466-1.036,1.036.818,1.036,1.036,1.036S223.724,207.392,224.076,206.822Zm.94-6.731c.933-1.424,1.534-2.589,1.335-2.589a15.71,15.71,0,0,0-2.793,2.589c-1.338,1.424-1.938,2.589-1.335,2.589S224.084,201.515,225.017,200.091Zm-14.069-7.365c2.05-.831,3.153-1.857,2.731-2.541-.511-.826-1.024-.832-1.835-.022a5.75,5.75,0,0,1-3.507,1.126c-1.31,0-2.382.466-2.382,1.036s-.7,1.036-1.553,1.036a1.672,1.672,0,0,1-1.553-1.76c0-1.211-.334-1.427-1.069-.691a2.846,2.846,0,0,0-.41,2.789c.716,1.866,3.2,1.614,9.579-.971Zm19.342-.4c.352-.57.146-1.036-.457-1.036a1.071,1.071,0,0,0-1.1,1.036c0,.57.205,1.036.457,1.036S229.937,192.894,230.289,192.325Zm-3.64-3.365c-.03-4.477-1.549-5.44-8.491-5.385-3.91.031-7.038-.469-7.836-1.254-2.078-2.043-8.285-2.863-10.123-1.337-1.247,1.035-1.307,1.5-.277,2.132,2.616,1.617.215,1.759-5.344.317-7.808-2.025-9.2-1.126-1.7,1.1a67.788,67.788,0,0,0,14.8,1.95c7.759.133,8.674.35,8.257,1.962-.546,2.11-.546,2.11,2.787.843a4.109,4.109,0,0,1,4.468.485c2.7,2.047,3.475,1.866,3.457-.81Zm-43.01-6.909c-1.415-1.373-9.559-2.7-8.232-1.342,1.106,1.133,3.912,1.982,7.2,2.177C183.856,182.96,184.249,182.642,183.639,182.05Zm41.043-6.4c-.912-2.281-1-2.307-1.058-.323a4.85,4.85,0,0,0,.625,2.848C225.486,179.41,225.7,178.183,224.682,175.648Zm-15.791-5.977c.761-.482,1.343-1.174,1.294-1.537-.261-1.951.312-2.514,4.765-4.677L219.8,161.1l1.822,2.411c1.38,1.826,2.113,2.12,3.023,1.213,1.547-1.541.314-11.187-1.636-12.805a2.686,2.686,0,0,1-.766-2.821c.478-1.244.194-1.488-1.137-.977-1.243.477-2.051-.011-2.7-1.632-.717-1.783-.945-1.9-1-.5-.036,1-.648,1.812-1.36,1.812-.909,0-1.189,1.523-.94,5.115.329,4.74.055,5.437-3.727,9.491-3.082,3.3-4.556,4.193-6.021,3.631-1.5-.575-1.628-.937-.572-1.59.926-.572.165-1.071-2.359-1.545-4.187-.785-4.4-1.249-2.115-4.517,1.812-2.587.409-3.183-1.651-.7a2.756,2.756,0,0,1-2.716,1.068c-4.435-1.7,1.412,5.784,7.9,10.119,2.93,1.956,3.157,1.993,5.036.8Zm2.241-10.483c0-1.709-.679-2.065-3.883-2.037l-3.883.035,2.445,2.037C208.946,161.835,211.132,161.82,211.132,159.188Zm-22.2-.551c-2.247-1.7-3.685-1.956-3.685-.658,0,1.449,1.274,2.245,3.538,2.211,2.12-.032,2.122-.06.147-1.553Zm72.1-7.958c-.743-.743-1.225-.8-1.225-.155a2.853,2.853,0,0,0,.69,1.76.89.89,0,0,0,1.225.155C262.012,152.146,261.7,151.353,261.027,150.679Zm3.952-8.258c0-.461.915-.838,2.035-.838,4.875,0,5.607-12.069.961-15.831-2.31-1.871-2.434-1.872-3.816-.041-.991,1.313-1.26,3.608-.879,7.493.378,3.857.07,6.525-.989,8.573-1.843,3.564-.811,6.268,1.294,3.389a7.319,7.319,0,0,0,1.4-2.746ZM133.15,133.579c-.263-1.008-.495-.434-.516,1.275s.194,2.533.477,1.832a5.924,5.924,0,0,0,.038-3.107Zm142.755-1.8c2.293-5.488,1.966-13.547-.657-16.17-1.187-1.187-2.3-2-2.463-1.812-.466.525.693,21.573,1.188,21.573.238,0,1.107-1.616,1.933-3.591ZM125.99,124.07a2.033,2.033,0,0,0-1.856-1.643c-1.06,0-1.624,1.29-1.812,4.142l-.273,4.142,2.129-2.5c1.171-1.374,1.986-3.238,1.812-4.142Zm137.3-4.787c.6-4.733.475-5.215-1.39-5.215-1.805,0-1.984.507-1.473,4.179C261.612,126.761,262.307,127.012,263.291,119.283Zm5.4-.217c-1.131-1.131-1.907.668-1.095,2.539.77,1.774.826,1.773,1.255-.036a3.342,3.342,0,0,0-.16-2.5ZM24.035,466.344c6.284-6.489,13.311-11.029,16.971-10.964,1.507.027,1.311.51-1.052,2.589-1.6,1.406-3.462,2.563-4.142,2.57s-3.975,2.8-7.321,6.213c-3.946,4.02-6.923,6.2-8.47,6.2-2.071,0-1.542-.871,4.013-6.607Zm6.418,3.1c6.041-4.107,7.251-3.945,3.077.411-1.772,1.849-4.027,3.1-5.6,3.1-2.326,0-2.03-.411,2.524-3.507ZM160.392,344.485c0-.6.466-.809,1.036-.457s1.036.845,1.036,1.1-.466.457-1.036.457A1.071,1.071,0,0,1,160.392,344.485Zm44.418-90.373c-.786-1.726-.763-3.668.083-6.807.984-3.654,1.434-4.184,2.676-3.154,1.541,1.279,1.933,5.966.84,10.046-.8,3-2.208,2.966-3.6-.085Zm77.879-10.063.106-4.608,1.092,3.41c.8,2.49.769,3.733-.106,4.608C282.874,248.366,282.609,247.538,282.689,244.049Zm16.813-3.766a26.165,26.165,0,0,0-1.089-2.654c-.231-.427-.038-.777.428-.777,1.467,0,3.471,3.986,2.353,4.677-.562.347-1.323-.214-1.692-1.246Zm-18.712-5.5c-1.21-2.921-.8-4.041.871-2.371a3.593,3.593,0,0,1,.658,3.038C281.925,237.112,281.72,237.023,280.791,234.781ZM169.862,145.23c.273-.273,3.387-2.364,6.92-4.648l6.424-4.152-.631,2.836c-1.48,6.654-1.258,6.461-7.411,6.461-3.189,0-5.575-.223-5.3-.5Zm-21.46-3.539c-5.281-2.4-8.285-6.158-10.276-12.864-3.192-10.75-1.172-18.85,5.49-22.011,2.646-1.256,7.418-1.941,15.967-2.293,13.727-.565,19.809.9,23.58,5.7,2.588,3.291,2.788,11.317.452,18.172-1.988,5.833-8.936,12.576-14.571,14.141-6.209,1.724-15.855,1.33-20.641-.844Zm27.414-15.155c3.073-1.43,5.377-2.811,5.121-3.067s-3.574.62-7.373,1.947-6.608,2.712-6.243,3.077C168.434,129.606,169.994,129.247,175.816,126.537Zm-22.149-2.687c.6-2.432.413-2.67-1.77-2.253-1.636.313-4.187-.735-7.737-3.177l-5.3-3.644-.444,3.025c-.593,4.04.049,4.823,4.665,5.689a16.476,16.476,0,0,1,6.211,2.61c2.577,2.107,3.4,1.683,4.372-2.25Zm.532-8.194a18.988,18.988,0,0,1,5.458-6.309l3.324-2.126-3.107.65c-3.928.823-8.8,6.025-8.8,9.395,0,3.571.656,3.233,3.127-1.61Zm12.147,3.065c-1.98-1.153-2.4-3.572-.8-4.564,1.658-1.025,5.023,1.358,5.462,3.868.364,2.079.5,2.132,1.233.481,1.159-2.6-2.207-6.1-5.48-5.706-4.95.6-5.844,7.072-.968,7.007C167.9,119.779,167.959,119.659,166.346,118.72ZM164.829,111a8.943,8.943,0,0,1,10.06,4.262c.854,1.663,1.681,3.229,1.837,3.48s1.071-.332,2.034-1.294c1.643-1.644,1.642-1.751-.025-1.751a1.7,1.7,0,0,1-1.775-1.59c0-1.269.418-1.366,2.071-.481,1.376.736,2.071.753,2.071.051,0-2.042-7.82-6.06-12.944-6.65l-5.178-.6,3.624,1.448,3.624,1.448-3.317.079c-4.665.111-7.967,1.847-9.974,5.246-2.707,4.583-2.033,4.894,1.722.8,1.9-2.069,4.671-4.07,6.169-4.446Zm3.847,5.732a1.036,1.036,0,1,0-1.036,1.036A1.039,1.039,0,0,0,168.676,116.732Zm55.818,21.7c-5.65-.921-9.934-3-13.033-6.331-2.435-2.615-4.868-8.071-3.99-8.948.3-.3,3.282,1.85,6.637,4.768l6.1,5.306.64-3.2a48.155,48.155,0,0,0,.64-7.669c0-4.415.046-4.472,3.883-4.789,3.672-.3,3.9-.532,4.2-4.2.177-2.136.759-3.883,1.294-3.883,1.769,0,5.2,4.194,4.483,5.474-.534.949-.394.967.576.073.987-.91,1.007-1.7.085-3.423-2.184-4.082-.369-4.787,2.023-.786,2.648,4.431,3.736,4.542,2.091.215-.6-1.582-.878-3.092-.614-3.356s2.87.314,5.791,1.285,5.6,1.476,5.952,1.124c.938-.938-3.159-6.135-5.774-7.324-2.822-1.283-2.948-2.591-.179-1.867,3.171.829,8.1,7.068,8.884,11.241.9,4.807-.218,14.314-2.119,17.99a13.656,13.656,0,0,1-3.864,4.414c-5.354,3.483-15.756,5.191-23.711,3.893Zm19.672-13.678c-.1-3.146-.153-3.2-.872-.777a6.743,6.743,0,0,0-.353,3.365C243.808,128.968,244.265,128,244.165,124.757Zm-10.727-2.917c.375-.607.519-1.24.32-1.406-.826-.687-8.129.74-8.129,1.589C225.629,123.333,232.616,123.17,233.438,121.84Zm-7.809-5.516c0-.224.7-.675,1.553-1s1.553-.145,1.553.407-.7,1-1.553,1S225.63,116.548,225.63,116.325Zm-20.668-3.006c-.046-3.172,3.977-7.978,6.678-7.978,2.012,0,1.052,1.99-3.5,7.249L205,116.214l-.042-2.895ZM131.4,105.127a.852.852,0,0,1,.874-.821c.962,0,3.58-16.6,2.749-17.432-.284-.284-.517.027-.517.691a1.112,1.112,0,0,1-.969,1.208c-1,0-.6-14.295.5-17.76.427-1.345.089-1.915-1.135-1.915-1.623,0-1.62-.187.039-2.719,1.463-2.233,1.531-2.874.382-3.584-1.065-.658-.286-2.027,3.256-5.725,4.39-4.583,4.442-4.7.913-2.095-7,5.172-14.378,14.108-14.378,17.418,0,1.673.4,2.8.878,2.5.659-.408.8,13.807.217,21.39a.956.956,0,0,1-1,.777c-.515,0-.688-1.859-.383-4.132.364-2.712.063-4.725-.875-5.855-1.044-1.258-1.429-5.143-1.429-14.408,0-12.344.073-12.752,2.7-15.19,1.487-1.378,3.5-4.918,4.484-7.866s2.026-5.36,2.325-5.36.266.728-.075,1.617c-.434,1.131-.079,1.531,1.184,1.332.992-.157,3.078.562,4.635,1.6,2.788,1.854,2.9,1.841,7.508-.858,2.572-1.507,4.677-3.405,4.677-4.218,0-.888.62-1.239,1.553-.881,2.114.811,1.961-.619-.259-2.424-1.317-1.071-1.459-1.621-.52-2.012.785-.327,1.053-1.494.683-2.969-.517-2.06-.287-2.346,1.507-1.877,1.746.457,2.006,1.11,1.483,3.726-.543,2.716-.375,3.073,1.168,2.48a12.382,12.382,0,0,1,2.21-.692c.224,0-.047-1.2-.6-2.656-1.493-3.926-1.226-15.111.475-19.932,1.352-3.831,1.328-4.242-.259-4.576-3.707-.78,2.526-2.73,10.915-3.416,6.322-.516,9.811-.271,14.173,1,5.866,1.705,8.343,4.5,2.939,3.313-1.566-.343-5.684-.924-9.152-1.29-7.265-.768-10.376.649-13.881,6.321-2.019,3.267-2.039,3.689-.508,10.966a52.321,52.321,0,0,0,2.082,8.058c.269.269.539-1.8.6-4.6s.214-5.79.34-6.645.317-3.184.424-5.178c.137-2.57.462-3.2,1.117-2.165a3.639,3.639,0,0,1,.39,2.85c-.682,1.778.5,6.564,1.617,6.564.469,0,1.406-1.848,2.083-4.107,1.03-3.436,2.008-4.451,5.991-6.213,4.7-2.079,12.781-2.886,12.781-1.277a3.941,3.941,0,0,1-1.19,2.018c-.9.9.447,1.11,5.436.866,6.808-.332,8.45-1.7,3.312-2.756a22.508,22.508,0,0,1-5.488-2.071L186.8,12.662l3.225-.314a43.26,43.26,0,0,1,10.161,1.294c8.976,2.082,10.574,2.1,8.913.1-1.032-1.243-.791-1.627,1.358-2.166,1.683-.422,2.412-1.174,2.052-2.114-1.422-3.7,5.456-.118,10.533,5.492a10.981,10.981,0,0,0,5.18,2.892l3.107.6-3.107-1.514c-2.65-1.291-2.783-1.526-.9-1.6a4.858,4.858,0,0,1,3.492,1.469c.709.854.927,1.553.484,1.553s.038.932,1.069,2.071S234.8,22.5,235.5,22.5a4.206,4.206,0,0,1,2.555,1.553c1.594,1.921-.106,2.124-3.332.4-1.857-.994-2.064-.905-1.473.633.581,1.515.249,1.683-2.173,1.1-2.726-.66-2.676-.539,1.077,2.593,4.136,3.452,4.531,5.084.739,3.055-2.229-1.193-2.23-1.19-.348,1.728l1.886,2.923-2.811-1.812c-3.219-2.075-6.668-2.369-7.252-.618-.238.715-1.442.151-3-1.408-1.432-1.432-4.975-3.211-7.874-3.954-3.538-.907-5.1-1.792-4.757-2.693.549-1.432-.089-1.382-9.513.738a45.78,45.78,0,0,0-6.678,1.911c-1.9.948-3.336,6.153-2.233,8.123.661,1.181,1.318.825,3.1-1.683,2.747-3.858,7.036-7.025,10.789-7.967,3.984-1,3.477,1.075-.581,2.377-2.69.863-2.9,1.1-1.036,1.185,1.282.058,2.33.572,2.33,1.141,0,.951-.738,1.166-5.179,1.51-2.511.194-4.047,1.516-5.843,5.028-1.666,3.257-1.661,3.276.348,1.488,2.77-2.466,3.219-2.291,2.659,1.036-.455,2.708-.345,2.658,2.244-1.024a20.327,20.327,0,0,1,5.8-5.463c3.648-1.886,4.011-1.1.747,1.627-2.1,1.754-2.143,1.947-.406,1.978,1.547.028,1.793.558,1.254,2.707l-.671,2.673,3.665-2.8c2.967-2.263,3.665-2.47,3.665-1.087a2.7,2.7,0,0,1-1.613,2.328,1.611,1.611,0,0,0-1.094,1.972,1.262,1.262,0,0,1-.576,1.718c-.6.2-.888,1.279-.634,2.4.357,1.57.884,1.021,2.319-2.412,1.021-2.444,2.381-4.25,3.022-4.013,1.253.464,1.267.867.168,4.832-.607,2.193-.39,2.074,1.419-.777,2.545-4.01,3.67-4.335,2.784-.8-.527,2.1-.33,2.441,1.093,1.9,1.237-.475,1.5-.286.919.656-.625,1.012-.077,1.16,2.332.631,4.293-.943,10.822.979,14.854,4.372l3.341,2.811-1.881-2.871c-1.035-1.579-1.575-3.177-1.2-3.551,1.122-1.122,10.045,8.3,10.646,11.239.306,1.5,3.072,5.213,6.147,8.249,6.648,6.565,7.436,6.014,1.189-.83-2.5-2.741-3.59-4.521-2.521-4.125,1.543.571,1.757.31,1.2-1.457-.61-1.921-.449-2.028,1.486-.993,3.55,1.9,5.2,5.455,5.579,12,.335,5.822.513,6.194,3.132,6.5,2.9.342,3.714,1.75,1.483,2.557-1.036.375-1.036.907,0,2.661a14.293,14.293,0,0,1,1.261,6.09c-.032,3.74-.1,3.814-1.676,1.826-1.594-2.008-1.624-1.988-1.007.68a42.726,42.726,0,0,0,1.338,4.581c.557,1.452.316,1.681-1.167,1.112-1.028-.394-10.327-1.011-20.665-1.371l-18.8-.654L214.2,100.161c-18.54,5.334-18.564,5.336-35.174,2.929l-15.015-2.176-16.309,2.517c-8.97,1.384-16.309,2.147-16.309,1.7ZM262.268,92.211c-.744-4.1-1.588-4.97-2.775-2.849-.75,1.341-.709,2.006.143,2.29,2.385.795,1.136,2-1.542,1.487-1.893-.362-2.516-.157-2.01.661.4.652,2.072,1.186,3.709,1.186,2.663,0,2.924-.292,2.474-2.775Zm-4.538-4.933c0-2.506-3.714-6.141-5.284-5.171-.885.547,3.259,7.587,4.507,7.657C257.381,89.788,257.731,88.669,257.731,87.278Zm1.657-4.3c-.369-.96-.9-1.513-1.188-1.228s-.216,1.3.152,2.264.9,1.513,1.188,1.228S259.756,83.934,259.388,82.974Zm-.495-6.291c-.9-1.552-1.1-1.6-1.13-.25-.033,1.744,1.055,3.314,1.789,2.58C259.794,78.771,259.5,77.722,258.893,76.683Zm-4.289.156c-.72-.868-1.523-1.365-1.784-1.1-.718.718.741,2.683,1.992,2.683.687,0,.608-.594-.209-1.578Zm.857-4.713a1.381,1.381,0,0,0-2.709,0c-.2.612.406,1.113,1.355,1.113s1.559-.5,1.355-1.113ZM133.322,53.475c-.653-.4-.916-1.766-.586-3.029l.6-2.3-2.523,2.37a7.627,7.627,0,0,0-2.523,6.008v3.638l3.109-2.979c2.066-1.979,2.711-3.225,1.923-3.712Zm53.993-7.8c0-1.376.281-1.447,1.553-.392,1.345,1.116,1.462.821.879-2.2a47.729,47.729,0,0,0-1.382-5.479c-1.507-4.231,2.317-15.1,5.313-15.1.716,0,.611.649-.283,1.747-1.26,1.549-1.191,1.661.6.987a44.718,44.718,0,0,1,6.731-1.46l4.707-.7-6.731-.953a112.453,112.453,0,0,0-13.244-.937c-6.458.016-6.5,0-4.66-2.079,1.37-1.549.707-1.344-2.548.787l-4.4,2.882V30.4c0,4.2-.415,7.629-.923,7.629s-1.692-1.922-2.632-4.271c-2.669-6.669-3.135-3.884-.695,4.15,1.558,5.13,2.8,7.427,4.25,7.888,2.613.829,4.22-.146,3.468-2.1-.744-1.938.131-1.923,3.146.052l2.4,1.572.661-7.816c.363-4.3,1.376-9.2,2.251-10.892,1.847-3.572,3.031-4.08,2.01-.863a79.229,79.229,0,0,0-1.462,10.1,55.582,55.582,0,0,1-1.55,9.7c-.566,1.3-.32,1.812.875,1.812A1.677,1.677,0,0,0,187.315,45.672Zm-8.543-6.836a7.476,7.476,0,0,1-1.812-4.564c0-3.22,3.528-9.3,6.238-10.749,2.923-1.565,3.275-1.245,1.542,1.4-.873,1.333-2.166,5.422-2.872,9.087-1.225,6.361-1.366,6.58-3.1,4.825Zm24.471,6.909c.354-.922.18-1.337-.407-.974a2.2,2.2,0,0,0-1.024,1.607c0,1.49.742,1.161,1.431-.633Zm-34.118-2.794c-1.713-5.5-2.579-7.076-3.554-6.473-1.524.942-1.265,3.876.575,6.5C168.251,45.985,170.065,45.968,169.125,42.951Zm33.723-2.133c0-.57-.932-.192-2.071.839s-2.071,2.34-2.071,2.91.932.192,2.071-.839S202.848,41.387,202.848,40.818Zm-43.492-2.786c-.61-1.139-1.341-2.071-1.626-2.071s-.019.932.591,2.071,1.341,2.071,1.626,2.071S159.966,39.171,159.356,38.032Zm56.875-15.113A24.531,24.531,0,0,0,210.78,18.7c-2.764-1.437-2.878-1.416-1.9.357.575,1.038,2.83,2.886,5.012,4.107C219.1,26.075,219.173,26.067,216.231,22.919Zm10.883.51c-3.243-1.27-4.1-1.037-1.953.532,1.1.8,2.439,1.189,2.977.857S228.215,23.86,227.114,23.429ZM218.985,20.9c-2.231-1.97-4.327-3.31-4.659-2.978-.8.8,5.8,6.657,7.437,6.6C222.466,24.5,221.216,22.872,218.985,20.9Zm-13.5-1.436a8.753,8.753,0,0,0-2.771-2.218c-1.883-1.008-1.982-.914-.99.94,1.028,1.921,3.251,3.385,4.077,2.685.2-.169.057-.8-.317-1.406Zm13.505-3.087c-3.034-3.167-6.449-4.64-7.355-3.172-.533.863,7.415,6.157,9.272,6.176C221.438,19.388,220.576,18.037,218.988,16.38Zm-58.464-2.941c1.288-1.642,1.251-1.679-.391-.391a6.516,6.516,0,0,0-1.812,1.812C158.321,15.712,159.171,15.163,160.524,13.438Zm97.207,43.233a1.036,1.036,0,1,1,1.035,1.036A1.039,1.039,0,0,1,257.731,56.671ZM252.91,53c-.839-2.185.561-3.365,1.754-1.479,1.268,2,1.242,3.077-.073,3.077-.587,0-1.344-.719-1.681-1.6ZM247.863,51.4c-.882-2.78.211-3.8,2.048-1.913,1.222,1.258,1.229,1.692.039,2.767-1.14,1.031-1.54.867-2.087-.855ZM137.61,48.387c0-.57.726-1.036,1.614-1.036s1.326.466.974,1.036a2.221,2.221,0,0,1-1.614,1.036A1.009,1.009,0,0,1,137.61,48.387Zm1.553-18.639c-.352-.57-.147-1.036.457-1.036a1.071,1.071,0,0,1,1.1,1.036c0,.57-.205,1.036-.457,1.036S139.515,30.317,139.163,29.748ZM239.076,23c-1.923-1.985-3.027-3.609-2.453-3.609,1.338,0,7.145,6.023,6.464,6.7-.282.282-2.087-1.111-4.011-3.1Zm-90.593-8.786a2.221,2.221,0,0,1,1.614-1.036,1.009,1.009,0,0,1,.974,1.036c0,.57-.726,1.036-1.614,1.036S148.131,14.784,148.483,14.215Z" transform="translate(-3.215 -7.948)" fill="#fefefe"/></svg>