<svg xmlns="http://www.w3.org/2000/svg" width="270.299" height="270.298" viewBox="0 0 270.299 270.298"><g transform="translate(0 67.574)"><path d="M256.784,120H180.2v9.01h76.585a4.505,4.505,0,0,1,4.5,4.5V277.674a4.505,4.505,0,0,1-4.5,4.505H13.515a4.505,4.505,0,0,1-4.5-4.505V133.515a4.505,4.505,0,0,1,4.5-4.5H90.1V120H13.515A13.515,13.515,0,0,0,0,133.515V277.674a13.515,13.515,0,0,0,13.515,13.515H121.634v22.525H108.119v9.01h54.06v-9.01H148.664V291.189H256.784A13.515,13.515,0,0,0,270.3,277.674V133.515A13.515,13.515,0,0,0,256.784,120ZM139.654,313.714h-9.01V291.189h9.01Z" transform="translate(0 -120)" fill="#242424"/></g><g transform="translate(61.916 0)"><path d="M110.083,30.242l-.131.131,6.361,6.379a94.469,94.469,0,0,1,133.744,0l6.361-6.379A103.475,103.475,0,0,0,110.083,30.242Z" transform="translate(-109.952 0)" fill="#242424"/></g><g transform="translate(74.661 18.019)"><path d="M132.76,56.929l-.176.176,6.37,6.37A76.414,76.414,0,0,1,247.019,63.3l.172.172,6.37-6.37A85.419,85.419,0,0,0,132.76,56.929Z" transform="translate(-132.584 -31.999)" fill="#242424"/></g><g transform="translate(87.37 36.036)"><path d="M155.152,83.783l6.361,6.384a58.565,58.565,0,0,1,82.823-.015l.015.015,6.361-6.384A67.574,67.574,0,0,0,155.152,83.783Z" transform="translate(-155.152 -63.993)" fill="#242424"/></g><g transform="translate(100.114 54.059)"><path d="M177.812,110.491l-.028.028,6.37,6.37a40.544,40.544,0,0,1,57.33,0l6.37-6.37A49.528,49.528,0,0,0,177.812,110.491Z" transform="translate(-177.784 -95.999)" fill="#242424"/></g><g transform="translate(121.634 81.246)"><path d="M239.1,148.14l-.059-.045-.032-.036a13.8,13.8,0,0,0-18.979,0A13.221,13.221,0,0,0,216,157.636a13.515,13.515,0,1,0,27.03,0A13.176,13.176,0,0,0,239.1,148.14Zm-9.582,14a4.505,4.505,0,0,1-4.5-4.5,4.391,4.391,0,0,1,1.383-3.208,4.287,4.287,0,0,1,3.122-1.3,4.4,4.4,0,0,1,3.212,1.379,4.346,4.346,0,0,1,1.293,3.126A4.505,4.505,0,0,1,229.515,162.141Z" transform="translate(-216 -144.277)" fill="#242424"/></g></svg>