<svg xmlns="http://www.w3.org/2000/svg" width="360.813" height="269.674" viewBox="0 0 360.813 269.674"><g transform="translate(0 -64.662)"><g transform="translate(0 64.662)"><path d="M356.656,151.9,183.767,65.456a7.518,7.518,0,0,0-6.723,0L4.156,151.9a7.516,7.516,0,0,0,0,13.446l57.233,28.616v57.444c0,35.476,52.279,63.267,119.018,63.267s119.017-27.789,119.017-63.267V193.962l19.976-9.988V238.8a23.364,23.364,0,0,0-2.51,43.228l-15.968,42.13a7.517,7.517,0,0,0,7.029,10.181h37.937a7.517,7.517,0,0,0,7.03-10.18l-15.968-42.13a23.364,23.364,0,0,0-2.515-43.229V176.458l22.224-11.111a7.516,7.516,0,0,0,0-13.447Zm-100.769,132.2c-20.036,10.017-46.842,15.535-75.481,15.535s-55.444-5.517-75.481-15.535c-18.113-9.057-28.5-20.975-28.5-32.7V201.48l100.622,50.311a7.517,7.517,0,0,0,6.723,0L284.389,201.48v49.927h0C284.389,263.13,274,275.048,255.886,284.105Zm62.95,35.2,8.081-21.32L335,319.3Zm16.416-58.382a8.336,8.336,0,1,1-8.373-8.335h.072A8.345,8.345,0,0,1,335.253,260.922Zm-9.863-96.75L181.079,151.14a7.517,7.517,0,0,0-1.352,14.973l120.091,10.844L180.406,236.664,24.325,158.623l156.08-78.04,156.08,78.04Z" transform="translate(0 -64.662)" fill="#fe4a49"/></g></g></svg>