<svg xmlns="http://www.w3.org/2000/svg" width="229.215" height="270.468" viewBox="0 0 229.215 270.468"><g transform="translate(82.24)"><path d="M147.532,33.421A38.969,38.969,0,0,0,77.477,16a4.582,4.582,0,1,0,7.4,5.407,29.8,29.8,0,0,1,53.577,13.3,4.588,4.588,0,0,0,4.534,3.938,4.909,4.909,0,0,0,.653-.046A4.586,4.586,0,0,0,147.532,33.421Z" transform="translate(-76.593)" fill="#fed83c"/></g><g transform="translate(9.168 59.593)"><path d="M232.405,69.519,218.653,46.6a4.578,4.578,0,0,0-3.931-2.225H201.542a4.584,4.584,0,0,0,0,9.168h10.584l8.252,13.753H34.865L43.116,53.54h4.855a4.584,4.584,0,1,0,0-9.168h-7.45A4.578,4.578,0,0,0,36.59,46.6L22.838,69.519a4.586,4.586,0,0,0,3.931,6.945H228.474a4.586,4.586,0,0,0,3.931-6.945Z" transform="translate(-22.185 -44.372)" fill="#fed83c"/></g><g transform="translate(120.852 25.687)"><path d="M181.029,35.91a4.577,4.577,0,0,0-2.851-2.047L115.686,19.247a4.58,4.58,0,0,0-5.508,3.419l-4.713,20.145a4.584,4.584,0,0,0,8.927,2.086l3.669-15.68,53.564,12.529-8.417,35.986a4.58,4.58,0,0,0,3.419,5.505,4.635,4.635,0,0,0,1.05.121,4.578,4.578,0,0,0,4.456-3.539L181.6,39.371A4.566,4.566,0,0,0,181.029,35.91Z" transform="translate(-105.343 -19.126)" fill="#fed83c"/></g><g transform="translate(27.043 13.932)"><path d="M125.481,49.749,121.3,14.421a4.587,4.587,0,0,0-5.091-4.016L39.539,19.468a4.585,4.585,0,0,0-4.013,5.091L42.49,83.482a4.586,4.586,0,0,0,4.547,4.048,5.007,5.007,0,0,0,.545-.032A4.587,4.587,0,0,0,51.6,82.406L45.169,28.032l67.569-7.986,3.637,30.775a4.584,4.584,0,0,0,9.106-1.073Z" transform="translate(-35.494 -10.374)" fill="#fed83c"/></g><g transform="translate(61.294 44.01)"><g transform="translate(0)"><path d="M152.988,74.117l-9.1-37.838a4.58,4.58,0,0,0-5.529-3.383L64.51,50.655a4.585,4.585,0,0,0-3.386,5.529L65.672,75.1a4.584,4.584,0,1,0,8.914-2.143L71.109,58.5l64.935-15.614,8.027,33.38a4.586,4.586,0,0,0,8.916-2.146Z" transform="translate(-60.997 -32.769)" fill="#fed83c"/></g></g><g transform="translate(0 82.517)"><path d="M235.4,65.79a4.586,4.586,0,0,0-4.58-4.349H29.113a4.585,4.585,0,0,0-4.58,4.349L15.365,244.574a4.583,4.583,0,0,0,4.578,4.819H239.985a4.583,4.583,0,0,0,4.582-4.819ZM24.767,240.224l8.7-169.615H226.46l8.7,169.615Z" transform="translate(-15.359 -61.441)" fill="#fed83c"/></g><g transform="translate(135.234 100.852)"><path d="M129.8,75.093a13.753,13.753,0,1,0,13.753,13.753A13.767,13.767,0,0,0,129.8,75.093Zm0,18.338a4.584,4.584,0,1,1,4.584-4.584A4.588,4.588,0,0,1,129.8,93.431Z" transform="translate(-116.052 -75.093)" fill="#fed83c"/></g><g transform="translate(66.471 100.852)"><path d="M78.6,75.093A13.753,13.753,0,1,0,92.357,88.846,13.767,13.767,0,0,0,78.6,75.093Zm0,18.338a4.584,4.584,0,1,1,4.584-4.584A4.589,4.589,0,0,1,78.6,93.431Z" transform="translate(-64.852 -75.093)" fill="#fed83c"/></g><g transform="translate(75.64 114.605)"><path d="M145.026,85.333h-.353a4.585,4.585,0,0,0-4.584,4.584,4.533,4.533,0,0,0,.353,1.767v23.445a29.8,29.8,0,1,1-59.6,0V89.918a4.584,4.584,0,1,0-9.168,0v25.213a38.965,38.965,0,1,0,77.931,0V89.918A4.587,4.587,0,0,0,145.026,85.333Z" transform="translate(-71.679 -85.333)" fill="#fed83c"/></g></svg>