<svg xmlns="http://www.w3.org/2000/svg" width="285.203" height="285.203" viewBox="0 0 285.203 285.203"><path d="M52.287,350.6a4.749,4.749,0,0,0,3.707-1.783c2-2.472,48.581-60.923,48.581-88.532A52.287,52.287,0,0,0,0,260.287c0,27.608,46.582,86.037,48.581,88.532a4.749,4.749,0,0,0,3.707,1.783Zm0-133.094a42.827,42.827,0,0,1,42.78,42.78c0,18.443-28.1,58.77-42.78,77.855-14.683-19.079-42.78-59.4-42.78-77.855A42.827,42.827,0,0,1,52.287,217.507Zm0,0" transform="translate(0 -84.412)" fill="#cb001b"/><path d="M94.027,275.014a19.014,19.014,0,1,0-19.014,19.014A19.014,19.014,0,0,0,94.027,275.014Zm-28.52,0a9.507,9.507,0,1,1,9.507,9.507A9.507,9.507,0,0,1,65.507,275.014Zm0,0" transform="translate(-22.726 -103.892)" fill="#cb001b"/><path d="M390.027,99.821a4.744,4.744,0,0,0,3.6-1.655c3.528-4.092,34.425-40.564,34.425-60.139a38.027,38.027,0,0,0-76.054,0c0,19.575,30.9,56.047,34.425,60.139A4.744,4.744,0,0,0,390.027,99.821Zm0-90.314a28.548,28.548,0,0,1,28.52,28.52c0,12.046-18.148,36.867-28.52,49.62-10.377-12.754-28.52-37.551-28.52-49.62A28.548,28.548,0,0,1,390.027,9.507Zm0,0" transform="translate(-142.851 0)" fill="#cb001b"/><path d="M420.52,46.26a14.26,14.26,0,1,0-14.26,14.26A14.261,14.261,0,0,0,420.52,46.26Zm-19.014,0a4.753,4.753,0,1,1,4.753,4.753A4.754,4.754,0,0,1,401.507,46.26Zm0,0" transform="translate(-159.085 -12.986)" fill="#cb001b"/><path d="M404.753,193.507h4.753a4.753,4.753,0,1,0,0-9.507h-4.753a4.753,4.753,0,1,0,0,9.507Zm0,0" transform="translate(-162.331 -74.672)" fill="#cb001b"/><path d="M300.728,241.507h9.611a4.753,4.753,0,1,0,0-9.507h-9.688a4.723,4.723,0,0,0-4.714,4.753A4.785,4.785,0,0,0,300.728,241.507Zm0,0" transform="translate(-120.1 -94.152)" fill="#cb001b"/><path d="M393.688,236.753a4.754,4.754,0,0,0,4.753,4.753h9.683a4.753,4.753,0,1,0,0-9.507h-9.683A4.754,4.754,0,0,0,393.688,236.753Zm0,0" transform="translate(-159.77 -94.152)" fill="#cb001b"/><path d="M355.851,193.507h9.685a4.753,4.753,0,0,0,0-9.507h-9.685a4.753,4.753,0,0,0,0,9.507Zm0,0" transform="translate(-142.485 -74.672)" fill="#cb001b"/><path d="M135.855,464h-9.688a4.753,4.753,0,1,0,0,9.507h9.688a4.753,4.753,0,1,0,0-9.507Zm0,0" transform="translate(-49.273 -188.304)" fill="#cb001b"/><path d="M277.052,216.026a4.663,4.663,0,0,0,.984-.1,4.754,4.754,0,0,0,3.674-5.624,9.882,9.882,0,0,1-.2-1.973A9.505,9.505,0,0,1,282.542,204a4.754,4.754,0,1,0-8.474-4.31,19.015,19.015,0,0,0-1.659,12.55A4.756,4.756,0,0,0,277.052,216.026Zm0,0" transform="translate(-110.385 -79.984)" fill="#cb001b"/><path d="M349.554,241.507h9.688a4.753,4.753,0,1,0,0-9.507h-9.688a4.753,4.753,0,1,0,0,9.507Zm0,0" transform="translate(-139.93 -94.152)" fill="#cb001b"/><path d="M306.944,193.507h9.688a4.753,4.753,0,1,0,0-9.507h-9.688a4.753,4.753,0,0,0,0,9.507Zm0,0" transform="translate(-122.638 -74.672)" fill="#cb001b"/><path d="M228.675,326.714a4.607,4.607,0,0,0,1.154.144,4.757,4.757,0,0,0,4.607-3.6,16.776,16.776,0,0,1,3.389-6.654,4.753,4.753,0,1,0-7.276-6.113,26.185,26.185,0,0,0-5.334,10.458,4.754,4.754,0,0,0,3.461,5.77Zm0,0" transform="translate(-91.34 -125.28)" fill="#cb001b"/><path d="M379.747,463.637a23.157,23.157,0,0,1-3.08.2h-5.984a4.753,4.753,0,0,0,0,9.507h5.984a33.367,33.367,0,0,0,4.278-.276,4.754,4.754,0,1,0-1.216-9.43Zm0,0" transform="translate(-148.505 -188.141)" fill="#cb001b"/><path d="M389.6,369.425A33.261,33.261,0,0,0,379.9,368h-1.246a4.753,4.753,0,0,0,0,9.507H379.9a23.963,23.963,0,0,1,6.935,1.026,4.659,4.659,0,0,0,1.383.209,4.752,4.752,0,0,0,1.383-9.3Zm0,0" transform="translate(-151.74 -149.344)" fill="#cb001b"/><path d="M373.406,305.507a4.753,4.753,0,1,0,0-9.507h-9.683a4.753,4.753,0,0,0,0,9.507Zm0,0" transform="translate(-145.68 -120.125)" fill="#cb001b"/><path d="M422.759,436.1a4.752,4.752,0,0,0-6.283,2.377,23.716,23.716,0,0,1-4.491,6.657,4.753,4.753,0,1,0,6.868,6.568,33.125,33.125,0,0,0,6.295-9.321,4.755,4.755,0,0,0-2.388-6.281Zm0,0" transform="translate(-166.629 -176.812)" fill="#cb001b"/><path d="M465.422,273.273a4.755,4.755,0,0,0-5.909,3.215,14.419,14.419,0,0,1-3.711,6.151,4.756,4.756,0,1,0,6.654,6.8,23.887,23.887,0,0,0,6.178-10.254,4.751,4.751,0,0,0-3.212-5.909Zm0,0" transform="translate(-184.397 -110.822)" fill="#cb001b"/><path d="M455.137,248.529a4.753,4.753,0,0,0,3.542-7.928,23.915,23.915,0,0,0-9.983-6.617,4.755,4.755,0,0,0-3.089,8.994,14.254,14.254,0,0,1,5.988,3.974,4.761,4.761,0,0,0,3.542,1.578Zm0,0" transform="translate(-179.536 -94.852)" fill="#cb001b"/><path d="M339.445,368h-9.683a4.753,4.753,0,1,0,0,9.507h9.683a4.753,4.753,0,1,0,0-9.507Zm0,0" transform="translate(-131.897 -149.345)" fill="#cb001b"/><path d="M422.3,296h-9.688a4.753,4.753,0,0,0,0,9.507H422.3a4.753,4.753,0,1,0,0-9.507Zm0,0" transform="translate(-165.522 -120.125)" fill="#cb001b"/><path d="M184.757,464h-9.683a4.753,4.753,0,1,0,0,9.507h9.683a4.753,4.753,0,1,0,0-9.507Zm0,0" transform="translate(-69.121 -188.304)" fill="#cb001b"/><path d="M424.408,391.142a4.761,4.761,0,1,0-7.861,5.373,23.506,23.506,0,0,1,3.326,7.295,4.754,4.754,0,1,0,9.2-2.377A33.01,33.01,0,0,0,424.408,391.142Zm0,0" transform="translate(-168.709 -157.894)" fill="#cb001b"/><path d="M245.853,360.643a16.907,16.907,0,0,1-5.786-4.73,4.755,4.755,0,0,0-7.511,5.833,26.378,26.378,0,0,0,9.089,7.42,4.754,4.754,0,0,0,4.208-8.523Zm0,0" transform="translate(-93.973 -143.693)" fill="#cb001b"/><path d="M233.65,464h-9.7a4.753,4.753,0,1,0,0,9.507h9.7a4.753,4.753,0,0,0,0-9.507Zm0,0" transform="translate(-88.957 -188.304)" fill="#cb001b"/><path d="M331.468,464h-9.683a4.753,4.753,0,0,0,0,9.507h9.683a4.753,4.753,0,1,0,0-9.507Zm0,0" transform="translate(-128.66 -188.304)" fill="#cb001b"/><path d="M275.6,305.507a4.753,4.753,0,1,0,0-9.507h-9.683a4.753,4.753,0,1,0,0,9.507Zm0,0" transform="translate(-105.989 -120.125)" fill="#cb001b"/><path d="M324.522,305.507a4.753,4.753,0,1,0,0-9.507h-9.706a4.753,4.753,0,0,0,0,9.507Zm0,0" transform="translate(-125.832 -120.125)" fill="#cb001b"/><path d="M290.544,368h-9.685a4.753,4.753,0,1,0,0,9.507h9.685a4.753,4.753,0,1,0,0-9.507Zm0,0" transform="translate(-112.051 -149.345)" fill="#cb001b"/><path d="M282.57,464h-9.688a4.753,4.753,0,1,0,0,9.507h9.688a4.753,4.753,0,1,0,0-9.507Zm0,0" transform="translate(-108.814 -188.304)" fill="#cb001b"/><path d="M89.507,464H84.753a4.753,4.753,0,1,0,0,9.507h4.753a4.753,4.753,0,0,0,0-9.507Zm0,0" transform="translate(-32.466 -188.304)" fill="#cb001b"/></svg>