<svg xmlns="http://www.w3.org/2000/svg" xmlns:xlink="http://www.w3.org/1999/xlink" width="349.49" height="520.41" viewBox="0 0 349.49 520.41">
  <defs>
    <linearGradient id="linear-gradient" x1="-41.352" y1="7.839" x2="-41.989" y2="6.919" gradientUnits="objectBoundingBox">
      <stop offset="0" stop-color="#b6b6b6"/>
      <stop offset="1" stop-color="#5a5a5a"/>
    </linearGradient>
  </defs>
  <g id="iPad" transform="translate(-792.61 -907.26)">
    <path id="Path_107" data-name="Path 107" d="M24.07,0H324.92a24.07,24.07,0,0,1,24.07,24.07V495.84a24.07,24.07,0,0,1-24.07,24.07H24.07A24.07,24.07,0,0,1,0,495.84V24.07A24.07,24.07,0,0,1,24.07,0Z" transform="translate(792.86 907.51)" fill="#fff" stroke="#707070" stroke-width="0.5"/>
    <rect id="Rectangle_75" data-name="Rectangle 75" width="342.8" height="513.79" rx="20.683" transform="translate(795.96 910.96)" fill="#fff"/>
    <circle id="Ellipse_5" data-name="Ellipse 5" cx="14.246" cy="14.246" r="14.246" transform="translate(953.114 1387.314)" fill="#fff" stroke="#cfcfcf" stroke-width="0.587"/>
    <rect id="Rectangle_76" data-name="Rectangle 76" width="11.239" height="11.102" rx="2.81" transform="translate(961.74 1396.01)" fill="none" stroke="#cfcfcf" stroke-width="0.587"/>
    <rect id="Rectangle_77" data-name="Rectangle 77" width="314.77" height="418.61" rx="1.584" transform="translate(809.97 957.27)" stroke="#5a5a5a" stroke-width="0.44"/>
    <path id="Path_105" data-name="Path 105" d="M963.13,321.15a3.772,3.772,0,1,1-3.772-3.772A3.772,3.772,0,0,1,963.13,321.15Z" transform="translate(8 614)" fill-rule="evenodd" fill="url(#linear-gradient)"/>
  </g>
</svg>
