<?xml version="1.0" encoding="UTF-8" standalone="no"?>
<!-- Created with Inkscape (http://www.inkscape.org/) -->

<svg
   xmlns:dc="http://purl.org/dc/elements/1.1/"
   xmlns:cc="http://creativecommons.org/ns#"
   xmlns:rdf="http://www.w3.org/1999/02/22-rdf-syntax-ns#"
   xmlns:svg="http://www.w3.org/2000/svg"
   xmlns="http://www.w3.org/2000/svg"
   xmlns:sodipodi="http://sodipodi.sourceforge.net/DTD/sodipodi-0.dtd"
   xmlns:inkscape="http://www.inkscape.org/namespaces/inkscape"
   version="1.1"
   id="svg66"
   width="297"
   height="457"
   viewBox="0 0 297 457"
   sodipodi:docname="1.svg"
   inkscape:version="0.92.3 (2405546, 2018-03-11)">
  <sodipodi:namedview
     pagecolor="#ffffff"
     bordercolor="#666666"
     borderopacity="1"
     objecttolerance="10"
     gridtolerance="10"
     guidetolerance="10"
     inkscape:pageopacity="0"
     inkscape:pageshadow="2"
     inkscape:window-width="1920"
     inkscape:window-height="1017"
     id="namedview68"
     showgrid="false"
     inkscape:zoom="1.8599562"
     inkscape:cx="179.00367"
     inkscape:cy="277.81863"
     inkscape:window-x="-8"
     inkscape:window-y="-8"
     inkscape:window-maximized="1"
     inkscape:current-layer="svg66" />
  <metadata
     id="metadata72">
    <rdf:RDF>
      <cc:Work
         rdf:about="">
        <dc:format>image/svg+xml</dc:format>
        <dc:type
           rdf:resource="http://purl.org/dc/dcmitype/StillImage" />
        <dc:title></dc:title>
      </cc:Work>
    </rdf:RDF>
  </metadata>
  <defs
     id="defs70" />
  <path
     style="fill:#ffffff;fill-opacity:0"
     d="m 3.5155265,456.32499 c 1.5042344,-0.3005 4.0410012,-4.73593 9.9999995,-17.48458 L 21.5,421.75847 21.59306,411.62924 c 0.07361,-8.01217 0.978162,-14.10036 4.327846,-29.12924 4.232998,-18.992 4.234881,-19.00968 4.475143,-42 0.166085,-15.89243 -0.146305,-24.49546 -1.010887,-27.83929 -0.876579,-3.39022 -0.980911,-6.50032 -0.348427,-10.38645 1.261542,-7.75121 1.96326,-7.75119 1.96326,6e-5 0,3.6342 0.45,6.88576 1,7.22568 0.55,0.33992 1.011022,1.60398 1.024492,2.80902 0.02347,2.09992 1.544256,4.30412 8.746873,12.67754 1.799251,2.09173 6.38795,5.91317 10.197108,8.4921 3.809158,2.57892 7.454644,5.32624 8.101079,6.10515 0.646436,0.7789 1.682737,1.41497 2.302893,1.41349 1.298216,-0.003 -6.527783,-7.15927 -10.622445,-9.71325 -1.5125,-0.9434 -2.75,-2.30289 -2.75,-3.0211 0,-0.7182 -1.118359,-1.81539 -2.485243,-2.43818 -3.388583,-1.54394 -6.277769,-7.94527 -7.995417,-17.71477 -0.789606,-4.49106 -1.718219,-8.62278 -2.063584,-9.18159 -0.345365,-0.55881 -0.07551,-1.68165 0.599668,-2.49519 0.9825,-1.18384 0.872536,-2.26657 -0.550757,-5.42287 -1.654943,-3.67001 -1.664764,-4.11707 -0.141514,-6.44184 0.900265,-1.37398 2.547752,-2.98564 3.661081,-3.58148 1.113329,-0.59584 4.825829,-3.88762 8.25,-7.31508 C 56.361608,265.57681 63.876267,261.75896 88,253.48909 c 19.72309,-6.76129 27.3988,-10.27507 41,-18.76896 4.125,-2.57604 9.00526,-4.98171 10.84502,-5.34592 l 3.34501,-0.66222 -0.63566,6.89401 c -0.34961,3.7917 -0.87098,8.40035 -1.15861,10.24144 -0.51338,3.28621 -0.55981,3.31407 -2.53861,1.52328 -1.86039,-1.68363 -1.83623,-1.47061 0.31359,2.76511 1.28109,2.52409 2.59724,4.44252 2.92477,4.26318 0.32754,-0.17935 0.89383,-5.63 1.25842,-12.11255 0.3646,-6.48255 1.61228,-19.07886 2.77262,-27.9918 l 2.1097,-16.20534 -5.36812,-19.46624 C 137.5824,159.45566 137.46162,159.16442 135,159.65084 c -8.75505,1.73001 -19,-17.05871 -19,-34.84501 0,-7.63607 0.28136,-9.08719 2.11803,-10.92386 1.55641,-1.55641 2.31876,-1.79327 2.875,-0.89324 0.53975,0.87333 0.95326,0.9072 1.44099,0.11803 1.33643,-2.16239 2.27228,-1.03095 4.07672,4.9287 1.21097,3.99957 2.10769,5.60185 2.65835,4.75 0.60384,-0.93412 1.00326,-0.65606 1.46137,1.01732 1.22454,4.47304 4.90174,10.60357 7.4901,12.48729 1.44131,1.04893 5.04131,2.69243 8,3.65222 5.8394,1.89427 7.07489,3.8022 8.13185,12.55771 0.68364,5.66305 7.53574,27.04518 8.39237,26.18855 0.20712,-0.20711 -0.3302,-2.35927 -1.19403,-4.78256 C 159.74396,169.11798 155,147.71142 155,144.79775 155,143.18933 156.03534,143 164.83102,143 c 11.39047,0 11.0368,0.29521 13.66221,-11.40374 1.90239,-8.47713 5.85287,-15.97729 9.22477,-17.51363 3.43647,-1.56577 7.282,0.86907 7.282,4.61067 0,1.45595 1.42926,5.74801 3.17614,9.5379 2.66491,5.7816 3.33247,6.59923 4.14747,5.07976 0.53424,-0.99603 1.10966,-1.97813 1.2787,-2.18245 0.16904,-0.20433 2.46517,0.92067 5.10252,2.5 4.25788,2.54974 5.69156,2.86297 12.79517,2.79542 10.46381,-0.0995 15.63284,-1.67512 20.37876,-6.21188 3.27985,-3.13531 3.99011,-4.56658 4.57141,-9.21205 1.1377,-9.09207 2.38167,-11.92159 5.88836,-13.39367 2.12875,-0.89364 3.76427,-1.01794 5.00682,-0.38054 1.39481,0.71552 2.31988,0.43729 3.78896,-1.13958 2.54803,-2.73499 3.21933,-2.64308 6.1521,0.84232 5.00334,5.94613 4.34118,14.34236 -2.33087,29.55571 -4.35092,9.92079 -7.31794,13.51674 -13.16947,15.96106 -2.04267,0.85327 -4.21907,2.49525 -4.83645,3.64884 -2.02571,3.78506 -3.29373,29.28474 -2.0194,40.6096 1.59223,14.15008 2.2924,15.73752 8.76861,19.8803 3.95726,2.53143 5.20233,3.83658 4.49223,4.70901 -0.5403,0.66382 -1.9209,4.37719 -3.068,8.25193 -2.09127,7.06402 -4.33313,10.05285 -10.32378,13.76364 -3.41063,2.11264 -16.28413,7.22694 -20.46222,8.12909 l -3.16293,0.68296 0.48961,-4.31034 c 0.26929,-2.37068 0.96176,-5.2866 1.53883,-6.47982 0.7421,-1.53447 0.71966,-3.11484 -0.0767,-5.39922 C 222.50665,234.15493 222,230.98283 222,228.88216 c 0,-2.83203 -0.35587,-3.68283 -1.37662,-3.29113 -0.85088,0.32651 -1.5998,-0.35382 -1.96099,-1.78139 -0.3214,-1.2703 -1.93563,-3.88464 -3.58718,-5.80964 l -3.00281,-3.5 3.55189,8.83583 c 4.31814,10.74202 5.48442,18.24088 4.44325,28.5689 C 219.20796,260.43142 218.64151,262 216.42193,262 c -0.99101,0 -1.30438,-0.7228 -0.97551,-2.25 0.26649,-1.2375 0.74088,-5.175 1.0542,-8.75 l 0.56967,-6.5 -2.55739,5.11515 c -2.60476,5.20988 -6.06197,9.16911 -7.10005,8.13103 -0.31619,-0.31619 -0.0712,-1.5161 0.54449,-2.66647 0.83529,-1.56076 0.80892,-3.12784 -0.10393,-6.17466 -0.88856,-2.96572 -0.92696,-4.55763 -0.14034,-5.8172 0.86063,-1.37809 0.66916,-1.99256 -0.9326,-2.99288 -2.02819,-1.26662 -2.11428,-4.65002 -0.23906,-9.39577 0.61189,-1.54858 0.3329,-1.70576 -1.99198,-1.12225 -2.54624,0.63907 -7.20102,-0.91719 -8.64954,-2.89184 -0.33006,-0.44994 -1.23006,-0.91331 -2,-1.02971 -0.76994,-0.1164 -2.0106,-0.59284 -2.75702,-1.05875 -1.31326,-0.81972 -1.17529,0.41938 0.56253,5.0522 0.90129,2.40271 -2.01745,2.58987 -3.82038,0.24497 -1.0123,-1.3166 -1.83624,-1.94382 -1.83098,-1.39382 0.005,0.55 0.67026,1.87351 1.47776,2.94113 0.80751,1.06762 1.4682,2.55536 1.4682,3.30609 0,3.03106 6.36209,13.98442 10.14871,17.47262 4.35894,4.01543 4.60655,6.11694 0.77296,6.56011 -6.78323,0.78417 -6.61284,0.53592 -10.56022,15.38589 -0.43027,1.61869 1.27413,3.53192 2.2643,2.54174 0.27098,-0.27098 0.67573,-1.93898 0.89945,-3.70667 0.22371,-1.7677 0.92716,-3.84105 1.56322,-4.60745 1.34303,-1.61825 5.5036,-1.86261 6.42166,-0.37715 0.34546,0.55897 0.99603,0.78893 1.44571,0.51101 1.29603,-0.80099 2.71667,1.64723 3.35106,5.77494 0.41534,2.70247 0.19272,3.95254 -0.76968,4.32185 -2.29941,0.88236 -3.99538,6.11885 -2.54699,7.86406 0.67846,0.8175 0.97235,2.16709 0.65308,2.9991 -0.31927,0.832 -0.13049,1.51273 0.41951,1.51273 0.55,0 1.27928,0.7875 1.62061,1.75 0.34134,0.9625 1.1635,2.425 1.82702,3.25 0.66351,0.825 1.72345,3.03923 2.35542,4.92051 1.04388,3.10753 0.87842,3.83652 -1.80828,7.96678 -1.62652,2.50045 -2.79391,4.70968 -2.59419,4.90939 0.19972,0.19972 1.52717,-0.39959 2.94989,-1.33179 2.74716,-1.80001 3.61991,-0.56722 1.08676,1.53511 -0.825,0.68469 -1.5,1.8041 -1.5,2.48759 0,0.68348 -0.83314,2.31588 -1.85143,3.62755 -1.01829,1.31167 -3.069,6.0636 -4.55714,10.55983 -1.48814,4.49624 -3.34247,8.70345 -4.12075,9.34936 -0.77827,0.64591 -2.57711,3.71268 -3.99742,6.81503 -1.51459,3.30832 -4.5865,7.50548 -7.42926,10.15065 -2.66579,2.48049 -6.80374,7.05442 -9.19545,10.16428 -2.3917,3.10986 -7.83605,9.73694 -12.09855,14.72685 -4.2625,4.9899 -7.75,9.70983 -7.75,10.48872 0,0.77889 -0.675,1.67518 -1.5,1.99177 -2.2463,0.86198 -1.91849,-3.32549 1.12429,-14.36163 6.90666,-25.0504 9.36724,-34.66392 9.34218,-36.5 -0.0563,-4.12477 -1.80948,1.15131 -6.81201,20.5 -5.07143,19.61526 -8.17805,35.39179 -14.3238,72.74156 l -3.33066,20.24156 -53.169559,0.008 -53.16956,0.008 3.31986,-6.75 C 41.168912,442.75114 45.972798,436.84125 59.224624,423.5 70.436807,412.21215 80.78551,398.60306 89.760881,383.34319 97.797138,369.68 119,329.57406 119,328.0364 c 0,-2.25652 23.99334,-0.0511 27,2.48178 1.95412,1.64619 17.43321,9.48182 18.73111,9.48182 0.54955,0 2.14318,-0.89988 3.54142,-1.99973 l 2.54224,-1.99973 6.84262,3.10221 c 15.69329,7.11481 20.25914,7.17349 5.59261,0.0719 -7.71705,-3.73664 -13.14384,-5.51746 -31.25,-10.25481 -2.475,-0.64756 -6.69751,-2.01943 -9.38335,-3.0486 -2.68585,-1.02917 -5.38585,-1.84269 -6,-1.80782 -0.61416,0.0349 -0.0388,0.49453 1.27853,1.02148 5.35625,2.14255 0.0278,1.95592 -19.39518,-0.67932 -3.58659,-0.48662 -3.80699,-0.39894 -2.13252,0.84836 1.79078,1.33393 1.7962,1.53182 0.13194,4.81858 -0.95454,1.88513 -2.76486,4.80421 -4.02294,6.48684 -1.25807,1.68264 -2.45313,4.15764 -2.65568,5.5 -0.20256,1.34237 -0.84011,2.35483 -1.41679,2.24992 -0.57668,-0.10491 -2.05445,2.93259 -3.28393,6.75 -1.22948,3.81741 -2.6706,6.94075 -3.2025,6.94075 -1.23125,0 -2.481288,-3.3071 -4.436161,-11.73635 -1.084251,-4.6752 -3.50443,-9.92693 -8.016268,-17.39509 -8.575975,-14.19528 -10.352624,-18.61156 -11.855358,-29.46933 -1.232986,-8.90874 -1.171867,-13.93161 0.262584,-21.57968 0.07019,-0.37425 1.140123,-0.87546 2.377623,-1.11382 2.073085,-0.39929 2.049208,-0.44407 -0.303656,-0.56955 -6.253653,-0.33349 -18.062906,8.25165 -22.020007,16.00821 -2.007944,3.9359 -2.010562,4.01712 -0.110033,3.41391 1.226717,-0.38934 2.151883,-0.0836 2.501155,0.8266 0.30487,0.79448 1.820661,2.05369 3.368425,2.79824 1.807544,0.86952 2.824437,2.14437 2.842972,3.56415 0.01587,1.21573 0.578371,2.75994 1.25,3.43157 C 68.450485,306.85049 69,307.81796 69,308.3288 c 0,0.51084 1.4625,2.63046 3.25,4.71026 4.636367,5.39454 6.865761,9.19519 17.415419,29.68969 7.593615,14.75189 9.259653,18.75733 8.734816,21 -1.343203,5.73962 -2.653384,5.74881 -8.107816,0.0568 -7.601601,-7.93266 -14.898522,-14.64379 -12.632603,-11.61847 1.098695,1.46692 4.511055,4.96425 7.583021,7.77185 3.071966,2.80761 6.480013,6.621 7.573437,8.47422 l 1.988043,3.36948 -4.459489,7.85867 c -2.45272,4.3223 -5.347818,8.7587 -6.433552,9.8587 -1.973617,1.99955 -1.974976,1.99947 -6.032425,-0.33152 -7.463662,-4.28785 -19.448465,-3.84311 -29.378851,1.0902 -5.314269,2.64007 -9.437963,6.7358 -9.472222,9.40799 -0.01528,1.19166 -0.590278,2.36756 -1.277778,2.61309 -0.6875,0.24554 -0.986996,0.73354 -0.665547,1.08446 0.321449,0.35091 2.589556,-0.92414 5.040238,-2.83345 5.617452,-4.37652 11.519404,-6.49556 20.170648,-7.24207 C 68.691207,392.73679 80,394.42852 80,395.93721 c 0,1.52019 -3.378617,5.20722 -6.026293,6.57639 -1.928484,0.99725 -2.707487,2.01658 -2.317606,3.0326 0.383891,1.0004 -1.446219,3.5555 -5.284411,7.37779 L 60.5,418.77137 53,419.43101 c -14.892138,1.3098 -22.683519,4.0273 -27.309649,9.52514 C 24.281674,430.63027 22.664191,432 22.095945,432 c -0.568247,0 -0.774154,0.675 -0.457571,1.5 0.316582,0.825 0.07018,1.5 -0.547564,1.5 -0.617742,0 -1.874232,1.575 -2.792201,3.5 -0.917968,1.925 -2.035688,3.5 -2.483821,3.5 C 15.366654,442 15,442.68328 15,443.51841 c 0,0.83512 -1.18172,3.7784 -2.626045,6.54062 -2.9990031,5.73548 -2.6520379,7.70989 0.482133,2.74357 4.088174,-6.478 24.082263,-22.26278 34.538832,-27.26744 3.907794,-1.87033 8.45508,-3.72325 10.10508,-4.11761 l 3,-0.71702 -1.918174,2.1643 c -1.054995,1.19037 -3.781388,3.34307 -6.058649,4.78377 -2.277262,1.44071 -4.836072,3.83147 -5.686244,5.31281 -1.146675,1.99796 -3.06791,3.12383 -7.44135,4.36071 -6.516695,1.84304 -17.968037,10.19528 -22.272239,16.24467 -2.382416,3.34839 -2.605588,3.42985 -9.0330557,3.29703 -3.6246585,-0.0749 -5.6833014,-0.31737 -4.5747618,-0.53883 z M 37.984687,413.25 C 37.963465,412.21056 36.815286,410.74726 34.75,409.12756 33.346634,408.02696 32.702885,408.00169 31.5,409 c -2.266255,1.88082 -1.830433,2.84741 1.75,3.88122 4.241517,1.22469 4.752976,1.26453 4.734687,0.36878 z M 107.9484,306 c 0.85929,-26.85523 1.2758,-27.9261 11.5844,-29.78381 l 5.9672,-1.07534 -6,0.17516 c -3.3,0.0963 -11.91726,-0.20802 -19.14947,-0.67637 -7.764227,-0.5028 -13.813113,-0.48015 -14.769916,0.0553 -1.099884,0.61552 0.05582,0.82984 3.597598,0.66713 2.86992,-0.13184 5.916381,0.19482 6.769912,0.72591 1.192161,0.74179 0.856496,0.93484 -1.448124,0.83285 -1.65,-0.073 -4.35,-0.0445 -6,0.0634 l -3,0.19615 3.28908,0.94853 c 3.460003,0.99782 6.806768,5.83914 4.555347,6.58961 -0.79716,0.26572 -0.598048,2.14105 0.673071,6.33927 0.992818,3.27906 2.333507,9.21999 2.97931,13.20207 1.833586,11.30607 4.754992,22.4317 6.649362,25.32287 l 1.72819,2.63757 0.94305,-2.36015 C 106.83609,328.56207 107.57003,317.825 107.9484,306 Z m 62.64842,15.87019 c 0.51075,-3.38758 0.38783,-4.11662 -0.5467,-3.24245 -1.27682,1.19436 -3.01337,7.5168 -2.98623,10.87226 0.0273,3.3678 2.76685,-2.54873 3.53293,-7.62981 z m -41.36215,-0.36751 c -1.79594,-0.78046 -3.52164,-2.08693 -3.83489,-2.90325 -0.31325,-0.81632 1.76943,-7.69764 4.62819,-15.29183 5.6859,-15.1044 7.60644,-19.3076 8.82212,-19.3076 1.24653,0 29.21183,28.03855 29.17359,29.25 -0.013,0.4125 -1.26118,0.75689 -2.77368,0.76531 -2.14294,0.0119 -2.41887,0.22931 -1.25,0.98469 1.76285,1.13924 9.9708,1.34314 10.06382,0.25 0.0351,-0.4125 0.14759,-2.775 0.25,-5.25 0.14192,-3.43034 1.81901,-7.55913 7.05541,-17.36958 l 6.86924,-12.86958 4.13076,0.5206 c 2.27192,0.28634 5.02279,0.1851 6.11303,-0.22497 1.39215,-0.52363 0.0957,-0.95903 -4.35512,-1.46258 -3.48556,-0.39434 -6.4593,-0.57679 -6.60831,-0.40544 -1.11399,1.28098 -11.05496,19.77497 -13.02968,24.24017 -1.35516,3.06426 -2.9911,5.57138 -3.63542,5.57138 -1.29607,0 -6.84743,-4.85758 -21.41852,-18.74175 l -9.69898,-9.24175 1.13188,-8.82597 c 0.62254,-4.85429 1.08259,-10.1455 1.02232,-11.75825 -0.23277,-6.2297 -2.98753,11.52687 -3.06412,19.75064 -0.0192,2.0626 -0.60354,3.90135 -1.32818,4.17942 -0.71163,0.27308 -4.06232,7.61577 -7.44597,16.31709 -3.38365,8.70131 -6.80461,16.32018 -7.60213,16.93081 -0.79751,0.61064 -1.45003,2.29814 -1.45003,3.75 0,2.55149 0.19227,2.63845 5.75,2.60062 l 5.75,-0.0391 -3.26533,-1.41904 z M 200,320 c 0,-0.55 -0.19844,-1 -0.44098,-1 -0.24254,0 -0.7191,0.45 -1.05902,1 -0.33992,0.55 -0.14148,1 0.44098,1 C 199.52344,321 200,320.55 200,320 Z M 55.121619,309.83331 C 51.57628,303.5084 48.41833,295.75482 46.025501,287.5 l -1.739224,-6 -0.749812,5.34333 c -0.495149,3.52854 -0.373946,5.71919 0.356861,6.45 C 44.501997,293.902 45,295.1549 45,296.07756 c 0,0.92265 0.638824,2.20773 1.419608,2.85572 0.780785,0.64799 2.22307,3.41252 3.205079,6.1434 1.883064,5.23662 7.523412,12.97902 8.129854,11.1597 0.196124,-0.58837 -0.988692,-3.46976 -2.632922,-6.40307 z M 171.34217,294.79956 c 0.56904,-2.17602 0.77826,-2.16565 -3.93761,-0.19523 -3.54662,1.48187 -3.70025,1.70629 -2.01279,2.94019 2.15785,1.57785 5.18515,0.18134 5.9504,-2.74496 z m 4.48644,-6.09304 c 0.8539,-1.0289 0.31642,-1.20407 -2.62756,-0.85637 -3.02775,0.3576 -3.33721,0.58012 -1.70105,1.2232 2.82301,1.10956 3.12452,1.084 4.32861,-0.36683 z m 1.97826,-7.23298 c -0.30789,-0.30789 -0.86705,0.24711 -1.24258,1.23333 -0.54268,1.4252 -0.42782,1.54006 0.5598,0.5598 0.68342,-0.67834 0.99067,-1.48524 0.68278,-1.79313 z m 0.60968,-5.11667 c 1.01616,-2.64808 -0.29806,-2.9198 -2.66655,-0.55131 L 173.55556,278 h 2.11523 c 1.16338,0 2.39897,-0.73941 2.74576,-1.64313 z m 22.31262,-0.96104 c -0.3323,-0.33229 -1.1948,-0.36781 -1.91667,-0.0789 -0.79773,0.31922 -0.56078,0.55618 0.60417,0.60416 1.05416,0.0434 1.64479,-0.19293 1.3125,-0.52522 z M 179.25,271.33772 c -0.6875,-0.27741 -1.8125,-0.27741 -2.5,0 -0.6875,0.27741 -0.125,0.50439 1.25,0.50439 1.375,0 1.9375,-0.22698 1.25,-0.50439 z M 189.86637,258.5 c -0.0896,-4.35089 -0.2021,-4.61053 -0.86637,-2 -1.18235,4.64655 -1.18235,10.32955 0,8.5 0.53316,-0.825 0.92302,-3.75 0.86637,-6.5 z m -54.53769,-19.86201 c -0.34712,-2.13907 -0.98547,-3.3812 -1.4823,-2.88437 -0.49684,0.49684 -0.38654,2.26702 0.25611,4.11055 0.62081,1.78086 1.28785,3.07882 1.48231,2.88437 0.19445,-0.19446 0.0792,-2.04421 -0.25612,-4.11055 z M 212,235.55902 c 0,-0.79254 -0.45,-1.7191 -1,-2.05902 -0.55,-0.33992 -1,0.30852 -1,1.44098 0,1.13246 0.45,2.05902 1,2.05902 0.55,0 1,-0.64844 1,-1.44098 z m 15.375,-9.43402 c -0.35139,-1.75694 -0.84734,-2.986 -1.10211,-2.73123 -0.25476,0.25477 -0.15257,1.87757 0.22711,3.60623 0.37968,1.72866 0.87562,2.95771 1.10211,2.73123 0.22648,-0.22648 0.12428,-1.84929 -0.22711,-3.60623 z m -6.02835,-14.90742 c -0.31572,-1.2073 -0.97409,-1.94784 -1.46304,-1.64564 -0.50029,0.30919 -0.41515,1.43486 0.19471,2.57439 1.344,2.5113 2.0355,2.00493 1.26833,-0.92875 z m 4.22635,-6.73905 c -2.05508,-1.55476 -3.20345,-1.30764 -2.11412,0.45494 0.36254,0.58659 1.4201,1.05222 2.35014,1.03473 1.48465,-0.0279 1.45585,-0.2097 -0.23602,-1.48967 z m -12.54237,-3.94163 c -0.68991,-0.83129 -0.95238,-2.30466 -0.58326,-3.27417 0.52698,-1.38412 0.40889,-1.50249 -0.54978,-0.55107 -0.95753,0.95027 -1.94856,0.57276 -4.59404,-1.75 -2.94079,-2.58205 -4.10569,-2.94888 -9.08835,-2.86198 -9.42483,0.16438 -11.95697,1.68492 -2.99858,1.80064 7.6917,0.0994 7.73321,0.11442 12.85397,4.66238 4.75922,4.22686 7.85082,5.45738 4.96004,1.9742 z M 216.5,200 c 0.33992,-0.55 -0.11008,-1 -1,-1 -0.88992,0 -1.33992,0.45 -1,1 0.33992,0.55 0.78992,1 1,1 0.21008,0 0.66008,-0.45 1,-1 z m 0.90804,-6.5 c 0.90094,-1.375 1.48113,-2.5 1.28933,-2.5 -0.19181,0 -1.40562,1.125 -2.69737,2.5 -1.29175,1.375 -1.87194,2.5 -1.28932,2.5 0.58261,0 1.79643,-1.125 2.69736,-2.5 z m -13.58607,-7.11214 c 1.97966,-0.80209 3.04525,-1.79369 2.63713,-2.45404 -0.49315,-0.79793 -0.98912,-0.8038 -1.77197,-0.0209 C 204.08921,184.51079 202.565,185 201.3,185 c -1.265,0 -2.3,0.45 -2.3,1 0,0.55 -0.675,1 -1.5,1 -0.825,0 -1.5,-0.765 -1.5,-1.7 0,-1.16931 -0.32241,-1.37759 -1.03278,-0.66722 -0.56803,0.56803 -0.74612,1.77983 -0.39574,2.69289 0.69131,1.80154 3.08951,1.55842 9.25049,-0.93781 z M 222.5,186 c 0.33992,-0.55 0.14148,-1 -0.44098,-1 -0.58246,0 -1.05902,0.45 -1.05902,1 0,0.55 0.19844,1 0.44098,1 0.24254,0 0.7191,-0.45 1.05902,-1 z m -3.51531,-3.25 c -0.0294,-4.32363 -1.49549,-5.25334 -8.19981,-5.19997 -3.77557,0.0301 -6.79679,-0.45333 -7.56703,-1.21071 -2.00628,-1.97281 -8.00076,-2.76438 -9.77615,-1.29094 -1.20381,0.99907 -1.26182,1.44476 -0.26799,2.05898 2.52585,1.56106 0.20737,1.69852 -5.16102,0.30597 -7.54048,-1.95597 -8.88807,-1.08729 -1.64308,1.05916 3.24059,0.96008 9.64387,1.80359 14.29605,1.88324 7.49247,0.12828 8.37629,0.33824 7.97401,1.89427 -0.52685,2.03787 -0.52695,2.03784 2.69175,0.81409 1.76999,-0.67295 2.98239,-0.5414 4.3151,0.4682 2.60967,1.97696 3.35576,1.80211 3.33817,-0.78229 z M 177.45,176.07782 c -1.36618,-1.32619 -9.2313,-2.60852 -7.95,-1.29618 1.06819,1.09407 3.77752,1.91363 6.95,2.10236 1.20903,0.0719 1.58901,-0.23442 1,-0.80618 z m 39.63487,-6.18264 c -0.88096,-2.20233 -0.9632,-2.22744 -1.02148,-0.31185 -0.0349,1.14584 0.23661,2.38334 0.60328,2.75 1.19437,1.19438 1.39751,0.0101 0.4182,-2.43815 z m -15.24946,-5.7723 c 0.73448,-0.46557 1.29698,-1.13368 1.25,-1.48468 -0.25217,-1.88423 0.3014,-2.4276 4.60157,-4.51678 l 4.68698,-2.27711 1.75903,2.32784 c 1.33253,1.76343 2.04045,2.0474 2.91969,1.17118 1.49366,-1.48852 0.30346,-10.80287 -1.58016,-12.36613 -0.7445,-0.61789 -1.07726,-1.84365 -0.73947,-2.72392 0.46117,-1.2018 0.18769,-1.43684 -1.09783,-0.94354 -1.20002,0.46049 -1.98061,-0.0109 -2.61022,-1.57639 -0.69265,-1.72222 -0.91273,-1.83284 -0.96161,-0.48335 -0.0349,0.9625 -0.62589,1.74972 -1.31339,1.74938 -0.87759,-4.4e-4 -1.14798,1.47123 -0.90756,4.93962 0.31728,4.57726 0.0529,5.25069 -3.59892,9.16559 -2.97626,3.19071 -4.4,4.04934 -5.81441,3.50658 -1.4458,-0.55481 -1.57176,-0.90498 -0.55217,-1.53512 0.89446,-0.5528 0.15902,-1.03432 -2.27802,-1.49151 -4.04296,-0.75847 -4.25261,-1.20626 -2.04222,-4.36203 1.74985,-2.49827 0.39461,-3.07369 -1.59447,-0.677 -0.70546,0.85003 -1.88556,1.31415 -2.62244,1.03138 -4.28276,-1.64344 1.36369,5.58557 7.63272,9.77199 2.82923,1.88934 3.04835,1.92421 4.8629,0.774 z M 204,154 c 0,-1.65036 -0.65558,-1.99418 -3.75,-1.96673 l -3.75,0.0333 2.36078,1.96673 C 201.88897,156.556 204,156.54234 204,154 Z m -21.44113,-0.5318 C 180.38932,151.82723 179,151.57939 179,152.83333 c 0,1.39975 1.22991,2.16825 3.41667,2.13487 2.04685,-0.0312 2.04934,-0.0575 0.1422,-1.5 z m 69.62446,-7.68487 c -0.71756,-0.71756 -1.18333,-0.7766 -1.18333,-0.15 0,0.56834 0.3,1.33334 0.66667,1.7 0.36666,0.36667 0.89916,0.43417 1.18333,0.15 0.28417,-0.28416 -0.0158,-1.04916 -0.66667,-1.7 z M 256,137.80887 C 256,137.36399 256.88417,137 257.96482,137 c 4.7076,0 5.41477,-11.65471 0.92763,-15.28817 -2.23107,-1.80662 -2.35043,-1.80789 -3.68499,-0.0395 -0.95685,1.26793 -1.21695,3.48376 -0.84931,7.2355 0.36503,3.7251 0.0679,6.3014 -0.95498,8.27937 -1.77992,3.442 -0.78321,6.05298 1.24947,3.27312 0.74105,-1.0134 1.34736,-2.20657 1.34736,-2.65145 z m -127.30701,-8.53984 c -0.25354,-0.97297 -0.47766,-0.41903 -0.49804,1.23097 -0.0204,1.65 0.18706,2.44606 0.46099,1.76903 0.27392,-0.67703 0.29059,-2.02703 0.0371,-3 z m 137.85804,-1.73691 c 2.21456,-5.30019 1.8984,-13.08269 -0.63436,-15.61545 -1.14584,-1.14584 -2.21631,-1.93334 -2.37884,-1.75 -0.44989,0.50749 0.66906,20.83333 1.14689,20.83333 0.22953,0 1.06937,-1.56055 1.86631,-3.46788 z M 121.77831,120.08735 C 121.61017,119.21431 120.80377,118.5 119.9863,118.5 c -1.02343,0 -1.56837,1.24569 -1.74982,4 l -0.26352,4 2.05552,-2.41265 c 1.13054,-1.32696 1.91796,-3.12696 1.74983,-4 z m 132.59224,-4.62306 c 0.58225,-4.57075 0.45833,-5.03572 -1.34209,-5.03572 -1.74308,0 -1.91556,0.48929 -1.42264,4.03572 1.14269,8.22136 1.81389,8.46414 2.76473,1 z m 5.21785,-0.20923 c -1.0924,-1.0924 -1.84148,0.64486 -1.05718,2.45181 0.74368,1.71337 0.79759,1.71181 1.21194,-0.0351 0.2385,-1.00555 0.16886,-2.09305 -0.15476,-2.41667 z M 23.320972,450.61959 c 6.068806,-6.2666 12.854503,-10.6504 16.38919,-10.58799 1.45555,0.0257 1.265805,0.49263 -1.015926,2.5 -1.54317,1.35762 -3.34317,2.47457 -4,2.48212 -0.65683,0.008 -3.838194,2.70754 -7.069697,6 C 23.814228,454.8959 20.939402,457 19.44551,457 c -1.999822,0 -1.48881,-0.84131 3.875462,-6.38041 z m 6.197531,2.99383 c 5.833828,-3.96601 7.002014,-3.80994 2.971503,0.39701 C 30.77923,455.7961 28.601183,457 27.081412,457 c -2.246119,0 -1.960413,-0.39702 2.437091,-3.38658 z M 155,332.94098 c 0,-0.58246 0.45,-0.7809 1,-0.44098 0.55,0.33992 1,0.81648 1,1.05902 0,0.24254 -0.45,0.44098 -1,0.44098 -0.55,0 -1,-0.47656 -1,-1.05902 z m 42.89471,-87.27272 c -0.75931,-1.66651 -0.73652,-3.54202 0.0799,-6.57394 0.95007,-3.52827 1.3849,-4.04085 2.58385,-3.04581 1.48862,1.23545 1.86711,5.76161 0.81126,9.70149 -0.77622,2.89648 -2.13257,2.86458 -3.475,-0.0817 z m 75.20738,-9.71826 0.10209,-4.45 1.0549,3.29301 c 0.77016,2.40412 0.7426,3.60531 -0.10209,4.45 -0.87599,0.87599 -1.1322,0.0762 -1.0549,-3.29301 z m 16.23666,-3.63662 c -0.35593,-0.99736 -0.82931,-2.15088 -1.05196,-2.56338 -0.22265,-0.4125 -0.0365,-0.75 0.41365,-0.75 1.41621,0 3.35239,3.84932 2.27202,4.51702 -0.54262,0.33536 -1.27779,-0.20628 -1.63371,-1.20364 z M 271.26888,227 c -1.16858,-2.82058 -0.77103,-3.90215 0.84157,-2.28955 0.59241,0.59241 0.87845,1.91241 0.63565,2.93333 -0.38234,1.60765 -0.58016,1.52144 -1.47722,-0.64378 z M 164.14541,140.52125 c 0.26331,-0.26331 3.27061,-2.28321 6.68288,-4.48866 l 6.20413,-4.00993 -0.60916,2.73867 C 174.99409,141.1867 175.20828,141 169.26595,141 c -3.07961,0 -5.38385,-0.21544 -5.12054,-0.47875 z m -20.72401,-3.41758 c -5.1001,-2.31635 -8.00048,-5.94718 -9.9235,-12.4227 -3.08292,-10.38131 -1.13218,-18.20304 5.30121,-21.25588 2.55552,-1.21267 7.16307,-1.87437 15.41939,-2.21441 13.25627,-0.54596 19.1292,0.8733 22.77075,5.50278 2.49959,3.17772 2.6926,10.92913 0.43697,17.54905 -1.91938,5.63306 -8.62932,12.14486 -14.07152,13.656 -5.99638,1.66502 -15.31161,1.28422 -19.9333,-0.81484 z m 26.47394,-14.63477 c 2.96743,-1.38136 5.19273,-2.71417 4.9451,-2.9618 -0.24764,-0.24763 -3.45152,0.59849 -7.11974,1.88027 -3.66822,1.28178 -6.38101,2.61898 -6.02843,2.97157 1.07422,1.07421 2.58111,0.72702 8.20307,-1.89004 z m -21.38879,-2.59501 c 0.57953,-2.34834 0.39879,-2.57845 -1.70881,-2.17556 -1.57977,0.302 -4.04344,-0.70959 -7.47201,-3.06804 l -5.11513,-3.51859 -0.42869,2.92089 c -0.57263,3.90157 0.0469,4.65708 4.50507,5.49343 2.08032,0.39027 4.77929,1.52463 5.99771,2.5208 2.48899,2.03497 3.28446,1.62555 4.22186,-2.17293 z m 0.51346,-7.91312 c 1.13337,-2.22157 3.50501,-4.9632 5.27033,-6.0925 L 157.5,103.815 l -3,0.62819 c -3.79319,0.79429 -8.5,5.81816 -8.5,9.07259 0,3.44879 0.63374,3.12248 3.02001,-1.55501 z M 160.75,114.9199 c -1.91246,-1.11391 -2.32081,-3.44909 -0.77067,-4.40713 1.60123,-0.98961 4.85103,1.3115 5.27489,3.73504 0.35121,2.00811 0.4803,2.0585 1.19112,0.46494 1.11921,-2.5091 -2.13141,-5.89349 -5.2923,-5.51008 -4.7804,0.57984 -5.64342,6.82969 -0.93442,6.76692 2.03087,-0.0271 2.08922,-0.14233 0.53138,-1.04969 z m -1.46507,-7.45528 c 3.85887,-0.96851 8.00571,0.7882 9.71507,4.11556 0.825,1.6059 1.62321,3.11803 1.77381,3.3603 0.15059,0.24226 1.03452,-0.32024 1.96429,-1.25 C 174.3254,112.10317 174.32394,112 172.71429,112 171.77143,112 171,111.30917 171,110.46482 c 0,-1.22531 0.4037,-1.31913 2,-0.46482 1.32851,0.711 2,0.72758 2,0.0494 0,-1.9718 -7.55201,-5.85177 -12.5,-6.42209 l -5,-0.57631 3.5,1.39844 3.5,1.39843 -3.20295,0.0761 c -4.50474,0.107 -7.69325,1.78391 -9.63178,5.06558 -2.61429,4.42565 -1.96312,4.72651 1.66257,0.76818 1.83031,-1.99824 4.511,-3.93011 5.95709,-4.29306 z M 163,113 c 0,-0.55 -0.45,-1 -1,-1 -0.55,0 -1,0.45 -1,1 0,0.55 0.45,1 1,1 0.55,0 1,-0.45 1,-1 z m 53.90296,20.95933 c -5.45593,-0.88986 -9.59338,-2.89979 -12.58635,-6.11432 -2.35117,-2.52522 -4.70078,-7.79417 -3.85352,-8.64143 0.28548,-0.28548 3.16989,1.78658 6.4098,4.60457 l 5.89076,5.12362 0.61817,-3.09088 c 0.34,-1.69999 0.61818,-5.03248 0.61818,-7.40552 0,-4.26396 0.044,-4.31828 3.75,-4.625 3.54636,-0.29352 3.76685,-0.51401 4.06037,-4.06037 0.1707,-2.0625 0.7332,-3.75 1.25,-3.75 1.70846,0 5.0254,4.05018 4.3294,5.28647 -0.51609,0.91672 -0.38006,0.93406 0.55617,0.0709 0.95332,-0.87894 0.97221,-1.64178 0.0819,-3.30544 -2.10952,-3.94166 -0.35594,-4.62321 1.95341,-0.75922 2.55716,4.27864 3.60774,4.38652 2.0188,0.2073 -0.58078,-1.52756 -0.84752,-2.98581 -0.59276,-3.24057 0.25476,-0.25476 2.7715,0.3035 5.59276,1.24057 2.82126,0.93707 5.40778,1.42556 5.74781,1.08552 0.90621,-0.9062 -3.05028,-5.92441 -5.57625,-7.072648 -2.72536,-1.238873 -2.84665,-2.502172 -0.1731,-1.803024 3.06211,0.800761 7.82369,6.825202 8.57973,10.855262 0.87088,4.64218 -0.21031,13.8228 -2.04594,17.37252 -0.78651,1.52095 -2.46553,3.43896 -3.73114,4.26225 -5.17029,3.36327 -15.21544,5.0125 -22.89815,3.75945 z M 235.90032,120.75 c -0.0932,-3.0378 -0.14818,-3.08677 -0.84247,-0.75 -0.40854,1.375 -0.56213,2.8375 -0.34131,3.25 0.83871,1.56674 1.27993,0.63494 1.18378,-2.5 z m -10.3592,-2.81653 c 0.36253,-0.58659 0.50159,-1.19773 0.30902,-1.35808 -0.79727,-0.66386 -7.85014,0.71436 -7.85014,1.53402 0,1.26601 6.74723,1.10859 7.54112,-0.17594 z M 218,112.60699 c 0,-0.21616 0.675,-0.65203 1.5,-0.96862 0.825,-0.31658 1.5,-0.13972 1.5,0.39301 0,0.53274 -0.675,0.96862 -1.5,0.96862 -0.825,0 -1.5,-0.17686 -1.5,-0.39301 z m -19.95936,-2.90244 C 197.9961,106.64062 201.88053,102 204.48973,102 c 1.94346,0 1.0159,1.92133 -3.3794,7 l -3.02905,3.5 -0.0406,-2.79545 z M 127,101.79325 C 127,101.35696 127.3799,101 127.84421,101 c 0.92911,0 3.45756,-16.031564 2.65503,-16.834094 C 130.22466,83.891324 130,84.191667 130,84.833333 130,85.475 129.5788,86 129.06401,86 128.09625,86 128.48576,72.195578 129.54795,68.848919 129.96006,67.550478 129.63388,67 128.45238,67 c -1.56686,0 -1.56425,-0.180325 0.0381,-2.625795 1.41306,-2.156602 1.47895,-2.775073 0.36874,-3.461219 -1.0285,-0.635648 -0.27654,-1.957769 3.14452,-5.52883 4.23975,-4.425641 4.29003,-4.541062 0.88134,-2.023115 C 126.12392,58.355396 119,66.985161 119,70.181127 c 0,1.615299 0.38166,2.70103 0.84813,2.412736 0.63677,-0.393548 0.77624,13.333173 0.20988,20.656137 -0.0319,0.4125 -0.46519,0.75 -0.96285,0.75 -0.49767,0 -0.66399,-1.795694 -0.36962,-3.990432 0.35122,-2.61849 0.0606,-4.562457 -0.84515,-5.654227 C 116.87221,83.140179 116.5,79.388514 116.5,70.441975 c 0,-11.920582 0.0701,-12.314554 2.61098,-14.669184 1.43604,-1.330788 3.3847,-4.749079 4.33037,-7.596203 C 124.38701,45.329465 125.39771,43 125.68736,43 c 0.28964,0 0.25697,0.702694 -0.0726,1.561542 -0.41925,1.092547 -0.076,1.478772 1.14301,1.285953 0.95823,-0.151574 2.97248,0.542739 4.47613,1.542917 2.69212,1.790721 2.80289,1.778068 7.25,-0.828107 2.48385,-1.455637 4.5161,-3.28852 4.5161,-4.073074 0,-0.857123 0.59869,-1.196723 1.5,-0.850857 2.04141,0.783361 1.89393,-0.597549 -0.25,-2.340953 -1.27158,-1.034018 -1.40874,-1.565207 -0.50172,-1.943002 0.75764,-0.315576 1.01671,-1.442587 0.65913,-2.867324 -0.49933,-1.989477 -0.27737,-2.265848 1.45579,-1.812618 1.68624,0.440962 1.93749,1.072094 1.43231,3.597982 -0.52451,2.622533 -0.36227,2.967138 1.12771,2.395378 C 149.38042,38.300527 150.34063,38 150.55704,38 c 0.2164,0 -0.0454,-1.154295 -0.58179,-2.5651 -1.44135,-3.791034 -1.18379,-14.592393 0.45899,-19.248514 1.30527,-3.699526 1.28279,-4.096935 -0.25,-4.419472 -3.57963,-0.753241 2.43933,-2.6367967 10.54051,-3.2985153 6.10532,-0.4986929 9.47464,-0.2616426 13.68714,0.9629639 5.66487,1.6468224 8.05655,4.3427444 2.83811,3.1991374 -1.5125,-0.331461 -5.48943,-0.892169 -8.83763,-1.24602 -7.01583,-0.741461 -10.01992,0.626423 -13.40521,6.103934 -1.95,3.155172 -1.96889,3.562779 -0.49063,10.590179 0.84559,4.019789 1.75029,7.521564 2.01045,7.781724 0.26016,0.260159 0.52085,-1.739484 0.57932,-4.44365 C 157.16476,28.7125 157.31279,25.825 157.43525,25 c 0.12246,-0.825 0.30651,-3.075 0.40901,-5 0.13217,-2.482226 0.4458,-3.090181 1.07853,-2.090684 0.49069,0.775124 0.66027,2.01363 0.37684,2.752236 C 158.64081,22.378418 159.77908,27 160.86076,27 c 0.45247,0 1.35744,-1.784937 2.01106,-3.966526 0.99423,-3.318438 1.93951,-4.298773 5.78541,-6 C 173.19491,15.026241 181,14.24624 181,15.8 c 0,0.44 -0.51694,1.316935 -1.14874,1.948745 -0.865,0.864993 0.43181,1.071562 5.25,0.836279 6.57472,-0.32106 8.1597,-1.639959 3.1983,-2.661375 -1.53976,-0.316994 -3.92456,-1.216994 -5.29956,-2 L 180.5,12.5 l 3.11454,-0.303256 c 1.713,-0.166791 6.12843,0.395709 9.81206,1.25 8.66849,2.010357 10.2117,2.027292 8.60759,0.09446 -0.99637,-1.200561 -0.7643,-1.570834 1.31099,-2.091699 1.62535,-0.407937 2.32958,-1.133479 1.98126,-2.0412012 -1.37274,-3.5773023 5.26879,-0.1140321 10.17161,5.3040502 1.10107,1.216793 3.35195,2.473634 5.00195,2.79298 l 3,0.58063 -3,-1.461762 c -2.55952,-1.247135 -2.68762,-1.473686 -0.87244,-1.54298 C 220.79771,15.036548 222.31531,15.675 223,16.5 c 0.68469,0.825 0.89504,1.5 0.46746,1.5 -0.42759,0 0.0371,0.9 1.03254,2 0.99549,1.1 2.36013,2 3.03254,2 0.67242,0 1.78277,0.675 2.46746,1.5 1.53963,1.855142 -0.10209,2.050914 -3.21737,0.383666 -1.79332,-0.959754 -1.99291,-0.874019 -1.42296,0.611245 0.56143,1.463047 0.24012,1.625229 -2.09837,1.059163 -2.63264,-0.637274 -2.58418,-0.520608 1.04015,2.50397 3.99401,3.33308 4.37518,4.909631 0.71319,2.949792 -2.1526,-1.15204 -2.15323,-1.148909 -0.33565,1.668979 L 226.5,35.5 223.78518,33.75 c -3.1083,-2.003648 -6.43937,-2.287425 -7.00298,-0.596591 -0.23028,0.690842 -1.39249,0.145391 -2.89796,-1.360077 -1.38242,-1.382418 -4.80432,-3.100611 -7.60424,-3.818208 -3.41707,-0.875769 -4.92732,-1.730624 -4.59364,-2.600171 0.53048,-1.382423 -0.0855,-1.334663 -9.18636,0.712283 -2.75,0.618523 -5.65183,1.448857 -6.44852,1.845186 -1.83937,0.915042 -3.22141,5.941516 -2.15672,7.844007 0.63839,1.140742 1.273,0.796716 2.99732,-1.624873 2.65295,-3.725716 6.79431,-6.783756 10.41891,-7.693475 3.8474,-0.965635 3.35764,1.038108 -0.56099,2.295171 -2.59789,0.833383 -2.79854,1.063056 -1,1.14466 C 196.9875,29.95406 198,30.45 198,31 c 0,0.918666 -0.71242,1.126394 -5.0012,1.458265 -2.42522,0.187666 -3.90826,1.463714 -5.64272,4.855147 -1.60844,3.145033 -1.60406,3.163767 0.33586,1.436588 2.67461,-2.38131 3.10848,-2.212368 2.56818,1 -0.43983,2.615015 -0.33345,2.566463 2.16735,-0.98915 1.44644,-2.056532 3.96698,-4.430588 5.60121,-5.27568 3.52248,-1.821544 3.87301,-1.057973 0.72132,1.571268 -2.03096,1.694291 -2.06908,1.880262 -0.39159,1.910293 1.49432,0.02675 1.7315,0.538906 1.21064,2.614181 l -0.64777,2.580913 3.53936,-2.699601 C 205.32577,37.27688 206,37.076951 206,38.412696 c 0,0.90754 -0.70086,1.919019 -1.55747,2.247731 -0.85661,0.328712 -1.33189,1.185515 -1.05618,1.904008 0.27571,0.718492 0.0252,1.465045 -0.55667,1.659005 -0.58188,0.19396 -0.85727,1.235534 -0.61198,2.314607 0.34458,1.515871 0.85373,0.98619 2.23936,-2.32964 0.98636,-2.360376 2.29953,-4.104126 2.91816,-3.875 1.20984,0.448096 1.22339,0.837353 0.16255,4.666593 -0.58658,2.117328 -0.37686,2.002526 1.37012,-0.75 2.45757,-3.872128 3.54384,-4.185965 2.68815,-0.77664 -0.50898,2.027941 -0.31887,2.357511 1.05564,1.830062 1.19431,-0.4583 1.44947,-0.276098 0.88726,0.633572 -0.60372,0.976845 -0.0745,1.11991 2.25228,0.608863 4.14541,-0.910486 10.45047,0.945189 14.34451,4.221808 l 3.22667,2.715063 -1.81666,-2.772572 c -0.99916,-1.524915 -1.52127,-3.067963 -1.16023,-3.428996 1.08371,-1.083712 9.70071,8.013735 10.28051,10.853707 0.29586,1.449177 2.96704,5.033805 5.93595,7.96584 6.41945,6.339707 7.18083,5.807911 1.14803,-0.801858 -2.41634,-2.64744 -3.46675,-4.366309 -2.43461,-3.983949 1.4896,0.551827 1.69695,0.299326 1.15537,-1.407019 -0.58881,-1.855189 -0.43404,-1.958598 1.43461,-0.958524 3.42815,1.834686 5.02455,5.26811 5.3876,11.587232 0.32304,5.622747 0.49584,5.981487 3.02482,6.279833 2.7979,0.330071 3.58629,1.689505 1.43221,2.469591 -1,0.362144 -1,0.876097 0,2.569765 0.6875,1.164396 1.23569,3.81069 1.2182,5.880653 -0.0305,3.612164 -0.0957,3.683111 -1.61873,1.763569 -1.53888,-1.939434 -1.56832,-1.919535 -0.97247,0.657099 0.33796,1.461405 0.91951,3.452029 1.29234,4.423609 0.53799,1.401964 0.30545,1.623597 -1.12681,1.073985 -0.99258,-0.380888 -9.973,-0.976762 -19.95649,-1.324165 l -18.1518,-0.631642 -11.46712,3.299087 C 189.06277,102.14905 189.03981,102.15096 173,99.826379 l -14.5,-2.101424 -15.75,2.430775 c -8.6625,1.33692 -15.75,2.07381 -15.75,1.63752 z M 253.38159,89.320073 c -0.71849,-3.962253 -1.5338,-4.799469 -2.67976,-2.751752 -0.72473,1.295023 -0.68454,1.937443 0.13838,2.211749 2.30279,0.767595 1.0972,1.930621 -1.48883,1.43627 -1.82828,-0.349497 -2.42945,-0.151684 -1.94099,0.638671 C 247.7996,91.484755 249.41168,92 250.9928,92 c 2.5721,0 2.8236,-0.282145 2.38879,-2.679927 z M 249,84.556704 c 0,-2.419941 -3.58688,-5.930057 -5.10254,-4.993331 -0.85415,0.527891 3.14763,7.326302 4.35254,7.394301 0.4125,0.02328 0.75,-1.057157 0.75,-2.40097 z M 250.6,80.4 c -0.35589,-0.927441 -0.87208,-1.461256 -1.14708,-1.186256 -0.275,0.275 -0.20881,1.258815 0.14708,2.186256 0.35589,0.927441 0.87208,1.461256 1.14708,1.186256 0.275,-0.275 0.20881,-1.258815 -0.14708,-2.186256 z m -0.47793,-6.074997 c -0.87155,-1.498777 -1.06669,-1.541977 -1.09166,-0.24167 -0.0323,1.68408 1.01919,3.200399 1.72792,2.49167 0.23375,-0.233749 -0.0526,-1.246249 -0.63626,-2.25 z m -4.14213,0.150831 c -0.69572,-0.838291 -1.47088,-1.31823 -1.72258,-1.066531 C 243.56387,74.1028 244.97291,76 246.18146,76 c 0.6631,0 0.58723,-0.573782 -0.20152,-1.524166 z M 246.80833,69.925 C 246.61125,69.33375 246.0225,68.85 245.5,68.85 c -0.5225,0 -1.11125,0.48375 -1.30833,1.075 -0.19709,0.59125 0.39166,1.075 1.30833,1.075 0.91667,0 1.50542,-0.48375 1.30833,-1.075 z M 128.85907,51.912901 c -0.63023,-0.389502 -0.88499,-1.705767 -0.56615,-2.925033 l 0.57972,-2.216848 -2.43632,2.288804 C 124.75131,50.642809 124,52.431895 124,54.861405 v 3.512777 l 3.00247,-2.876548 c 1.99467,-1.911019 2.61785,-3.114254 1.8566,-3.584733 z M 181,44.377555 c 0,-1.328496 0.27165,-1.396992 1.49939,-0.378064 1.29852,1.077682 1.41226,0.792671 0.84903,-2.127555 -0.3577,-1.854565 -0.95806,-4.235675 -1.33414,-5.291357 C 180.5587,32.494605 184.25197,22 187.1455,22 c 0.6913,0 0.58994,0.626298 -0.27306,1.687231 -1.21662,1.495667 -1.1505,1.603845 0.58235,0.9528 1.07513,-0.403937 4.00013,-1.038433 6.5,-1.409993 L 198.5,22.554476 192,21.634367 c -3.575,-0.50606 -9.3303,-0.913219 -12.78955,-0.904797 -6.23667,0.01518 -6.2745,-0.0017 -4.5,-2.007426 1.32339,-1.495832 0.68246,-1.297743 -2.46045,0.760446 L 168,22.265773 v 7.367113 C 168,33.684799 167.59886,37 167.10858,37 c -0.49028,0 -1.63411,-1.856169 -2.54185,-4.12482 -2.57697,-6.440491 -3.02743,-3.750598 -0.67107,4.007225 1.50483,4.954311 2.69965,7.171763 4.10459,7.617675 2.52325,0.800846 4.07491,-0.140647 3.34909,-2.032105 -0.71804,-1.871182 0.12684,-1.857303 3.0376,0.0499 l 2.31657,1.517875 0.63802,-7.547756 c 0.35091,-4.151266 1.32917,-8.88431 2.17392,-10.517875 1.78377,-3.449421 2.92722,-3.940199 1.94107,-0.833121 -0.37304,1.17535 -1.00851,5.56285 -1.41214,9.75 C 179.64074,39.074149 178.96749,43.2875 178.54826,44.25 178.0008,45.506889 178.23884,46 179.39301,46 180.27686,46 181,45.2699 181,44.377555 Z m -8.25,-6.601858 C 171.7875,36.799064 171,34.815615 171,33.368034 c 0,-3.109515 3.40651,-8.980041 6.02364,-10.380684 2.82319,-1.510925 3.16312,-1.202015 1.48896,1.353075 -0.84343,1.287233 -2.0913,5.236297 -2.77305,8.775697 -1.18322,6.142821 -1.31908,6.354576 -2.98955,4.659575 z m 23.63156,6.672365 c 0.34149,-0.889925 0.17385,-1.291322 -0.39301,-0.940983 C 195.44485,43.843104 195,44.541476 195,45.059017 c 0,1.438432 0.71677,1.121462 1.38156,-0.610955 z M 163.43386,41.75 c -1.65439,-5.310717 -2.49025,-6.833183 -3.43199,-6.251157 -1.47181,0.90963 -1.22146,3.742631 0.55483,6.278651 2.03323,2.902843 3.7848,2.886105 2.87716,-0.02749 z M 196,39.690025 c 0,-0.55 -0.9,-0.185511 -2,0.809975 -1.1,0.995486 -2,2.259975 -2,2.809975 0,0.55 0.9,0.185511 2,-0.809975 1.1,-0.995486 2,-2.259975 2,-2.809975 z M 154,37 c -0.5887,-1.1 -1.29537,-2 -1.57037,-2 -0.275,0 -0.0183,0.9 0.57037,2 0.5887,1.1 1.29537,2 1.57037,2 0.275,0 0.0183,-0.9 -0.57037,-2 z m 54.92431,-14.595014 c -1.33337,-1.427258 -3.70238,-3.259792 -5.26446,-4.072299 -2.6687,-1.388107 -2.77925,-1.36728 -1.83133,0.345014 0.55485,1.002265 2.73292,2.786938 4.84015,3.965942 5.02134,2.809459 5.09589,2.801572 2.25564,-0.238657 z m 10.50931,0.492797 c -3.13161,-1.226349 -3.9576,-1.001412 -1.88578,0.513541 1.06156,0.776229 2.3552,1.148603 2.87476,0.827498 0.51955,-0.321105 0.0745,-0.924573 -0.98898,-1.341039 z m -7.85026,-2.439436 c -2.15415,-1.90212 -4.17884,-3.196198 -4.49931,-2.875729 -0.77238,0.772375 5.59945,6.429121 7.18173,6.375755 0.67882,-0.02289 -0.52827,-1.597906 -2.68242,-3.500026 z m -13.03892,-1.386438 c -0.3607,-0.583635 -1.56483,-1.547636 -2.67583,-2.142225 -1.81794,-0.972936 -1.91355,-0.882165 -0.95576,0.907469 0.99282,1.855098 3.13926,3.268403 3.93729,2.592473 0.19257,-0.16311 0.055,-0.774083 -0.3057,-1.357717 z m 13.04211,-2.98157 c -2.93007,-3.058337 -6.22739,-4.480486 -7.10308,-3.063591 -0.51504,0.833354 7.16026,5.945686 8.95362,5.963792 0.5154,0.0052 -0.31734,-1.299887 -1.85054,-2.900201 z M 155.12756,13.25 c 1.24387,-1.586056 1.2085,-1.621426 -0.37756,-0.377555 -0.9625,0.754844 -1.75,1.542344 -1.75,1.75 0,0.823034 0.82119,0.293303 2.12756,-1.372445 z M 249,55 c 0,-0.55 0.45,-1 1,-1 0.55,0 1,0.45 1,1 0,0.55 -0.45,1 -1,1 -0.55,0 -1,-0.45 -1,-1 z m -4.65492,-3.543128 c -0.80982,-2.110341 0.54185,-3.249699 1.69398,-1.427912 1.22421,1.935752 1.19966,2.97104 -0.0704,2.97104 -0.56727,0 -1.29786,-0.694408 -1.62354,-1.543128 z m -4.87476,-1.550376 c -0.85215,-2.684892 0.20405,-3.67149 1.97728,-1.846972 1.18054,1.214696 1.18647,1.633557 0.0378,2.672332 -1.10101,0.995689 -1.48734,0.837453 -2.0151,-0.82536 z M 133,47 c 0,-0.55 0.70156,-1 1.55902,-1 0.85746,0 1.2809,0.45 0.94098,1 -0.33992,0.55 -1.04148,1 -1.55902,1 C 133.42344,48 133,47.55 133,47 Z m 1.5,-18 c -0.33992,-0.55 -0.14148,-1 0.44098,-1 0.58246,0 1.05902,0.45 1.05902,1 0,0.55 -0.19844,1 -0.44098,1 -0.24254,0 -0.7191,-0.45 -1.05902,-1 z m 96.48548,-6.51498 C 229.12768,20.568259 228.06175,19 228.61674,19 c 1.29226,0 6.89995,5.816643 6.242,6.474589 -0.27249,0.272497 -2.01546,-1.072809 -3.87326,-2.989569 z M 143.5,14 c 0.33992,-0.55 1.04148,-1 1.55902,-1 0.51754,0 0.94098,0.45 0.94098,1 0,0.55 -0.70156,1 -1.55902,1 -0.85746,0 -1.2809,-0.45 -0.94098,-1 z"
     id="path119"
     inkscape:connector-curvature="0" />
</svg>
