<?xml version="1.0" encoding="iso-8859-1"?>
<!-- Generator: Adobe Illustrator 19.0.0, SVG Export Plug-In . SVG Version: 6.00 Build 0)  -->
<svg version="1.1" id="Capa_1" xmlns="http://www.w3.org/2000/svg" xmlns:xlink="http://www.w3.org/1999/xlink" x="0px" y="0px"
	 viewBox="0 0 480 480" style="enable-background:new 0 0 480 480;" xml:space="preserve">
<g>
	<g>
		<path d="M456,120H320v16h136c4.418,0,8,3.582,8,8v256c0,4.418-3.582,8-8,8H24c-4.418,0-8-3.582-8-8V144c0-4.418,3.582-8,8-8h136
			v-16H24c-13.255,0-24,10.745-24,24v256c0,13.255,10.745,24,24,24h192v40h-24v16h96v-16h-24v-40h192c13.255,0,24-10.745,24-24V144
			C480,130.745,469.255,120,456,120z M248,464h-16v-40h16V464z"/>
	</g>
</g>
<g>
	<g>
		<path d="M110.184,53.704c-0.077,0.077-0.154,0.154-0.232,0.232l11.296,11.328C152.684,33.672,195.432,15.938,240,16
			c44.568-0.062,87.316,17.672,118.752,49.264l11.296-11.328C298.352-17.888,182.007-17.991,110.184,53.704z"/>
	</g>
</g>
<g>
	<g>
		<path d="M132.897,76.271c-0.104,0.104-0.209,0.208-0.313,0.313l11.312,11.312c52.908-53.077,138.826-53.213,191.903-0.305
			c0.102,0.102,0.204,0.203,0.305,0.305l11.312-11.312C288.265,17.26,192.221,17.119,132.897,76.271z"/>
	</g>
</g>
<g>
	<g>
		<path d="M155.152,99.136l11.296,11.336c40.607-40.622,106.457-40.633,147.078-0.026c0.009,0.009,0.017,0.017,0.026,0.026
			l11.296-11.336C277.986,52.279,202.014,52.279,155.152,99.136z"/>
	</g>
</g>
<g>
	<g>
		<path d="M177.833,121.735c-0.016,0.016-0.033,0.033-0.049,0.049l11.312,11.312c28.116-28.108,73.692-28.108,101.808,0
			l11.312-11.312C267.882,87.423,212.194,87.401,177.833,121.735z"/>
	</g>
</g>
<g>
	<g>
		<path d="M257.016,151.136l-0.104-0.08l-0.056-0.064c-9.451-8.953-24.253-8.953-33.704,0c-4.605,4.456-7.189,10.6-7.152,17.008
			c0,13.255,10.745,24,24,24s24-10.745,24-24C264.051,161.665,261.531,155.58,257.016,151.136z M240,176c-4.418,0-8-3.582-8-8
			c-0.004-2.157,0.885-4.219,2.456-5.696c1.455-1.495,3.458-2.328,5.544-2.304c2.158-0.007,4.223,0.879,5.704,2.448
			c1.484,1.465,2.312,3.467,2.296,5.552C248,172.418,244.418,176,240,176z"/>
	</g>
</g>
<g>
</g>
<g>
</g>
<g>
</g>
<g>
</g>
<g>
</g>
<g>
</g>
<g>
</g>
<g>
</g>
<g>
</g>
<g>
</g>
<g>
</g>
<g>
</g>
<g>
</g>
<g>
</g>
<g>
</g>
</svg>
