<?xml version="1.0" encoding="UTF-8"?>
<svg width="206.88mm" height="211.05mm" version="1.1" viewBox="0 0 733.02328 747.80134" xmlns="http://www.w3.org/2000/svg">
 <g transform="translate(-6.7962 -4.5051)">
  <g fill-rule="evenodd">
   <rect x="6.7962" y="4.5051" width="733.02" height="747.8" ry="2.5831" fill="#ffe082"/>
   <rect x="55.369" y="59.41" width="166.54" height="298.1" rx="7.647" ry="16.37" fill="#fff"/>
   <rect x="60.512" y="83.795" width="156.85" height="252.46" fill="#4fc3f7"/>
   <rect x="104.06" y="66.729" width="8.8656" height="8.7665" ry="4.3833" fill="#4fc3f7"/>
   <rect x="120.5" y="69.199" width="48.614" height="5.5536" ry="1.157" fill="#4fc3f7"/>
   <rect x="288.3" y="59.41" width="166.54" height="298.1" ry="18.327" fill="#fff"/>
   <rect x="293.44" y="83.795" width="156.85" height="243.77" fill="#faa"/>
   <rect x="347.26" y="69.257" width="48.614" height="5.4947" ry="1.1447" fill="#faa"/>
   <rect x="527.88" y="59.41" width="166.54" height="298.1" ry="13.663" fill="#fff"/>
   <rect x="533.02" y="86.707" width="156.85" height="238.37" fill="#ccc"/>
   <rect x="579.07" y="68.704" width="4.7164" height="4.6637" ry="2.0591" fill="#b0bec5"/>
   <rect x="593.08" y="69.114" width="35.72" height="4.0789" ry=".84978" fill="#b0bec5"/>
   <rect x="55.632" y="408.24" width="166.54" height="298.1" ry="6.8569" fill="#212121"/>
   <rect x="60.774" y="432.63" width="156.85" height="252.46" fill="#cddc39"/>
   <rect x="113.76" y="415.18" width="10.758" height="10.638" ry="5.319" fill="#cddc39"/>
   <rect x="120.76" y="418.34" width="48.614" height="4.73" ry=".98542" fill="#cddc39"/>
   <path d="m611.15 331.44a11.023 11.023 0 0 0 -11.023 11.023 11.023 11.023 0 0 0 11.023 11.023 11.023 11.023 0 0 0 11.023 -11.023 11.023 11.023 0 0 0 -11.023 -11.023zm0 3.1209a7.9029 7.9029 0 0 1 7.9023 7.9023 7.9029 7.9029 0 0 1 -7.9023 7.9023 7.9029 7.9029 0 0 1 -7.9023 -7.9023 7.9029 7.9029 0 0 1 7.9023 -7.9023z" fill="#ccc"/>
   <path d="m353.31 333.29c-1.556 0-2.8092 1.5326-2.8092 3.4355v10.877c0 1.9029 1.2532 3.4355 2.8092 3.4355h36.522c1.5561 0 2.8092-1.5326 2.8092-3.4355v-10.877c0-1.9029-1.2532-3.4355-2.8092-3.4355zm1.242 2.9197 34.038 0.0735c1.1214 2e-3 2.0245 0.5897 2.0245 1.9611v7.8391c0 1.3714-0.90308 1.9587-2.0245 1.9611l-34.038 0.0735c-1.1214 2e-3 -2.0245-0.66324-2.0245-2.0346v-7.8391c0-1.3714 0.90309-2.037 2.0245-2.0346z" fill="#faa"/>
   <rect x="400.44" y="69.084" width="5.6705" height="5.6071" ry="2.3119" fill="#faa"/>
   <rect x="836.43" y="470.93" width="1.0714" height="0" ry="0" fill="#039be5"/>
   <rect x="288.21" y="408.24" width="166.54" height="298.1" rx="83.269" ry="11.016" fill="#212121"/>
   <rect x="293.35" y="435.96" width="156.85" height="240.79" fill="#ff6f00"/>
   <rect x="303.74" y="422.51" width="7.4751" height="7.3916" ry="3.6958" fill="#ff6f00"/>
   <rect x="529.05" y="408.24" width="166.54" height="298.1" rx="0" ry="0" fill="#212121"/>
   <rect x="534.19" y="435.96" width="156.85" height="240.79" fill="#ffeb3b"/>
   <rect x="676.35" y="416.71" width="9.2113" height="9.1084" ry="4.5542" fill="#ffeb3b"/>
   <rect x="589.79" y="420.31" width="45.043" height="4.73" ry=".98542" fill="#ffeb3b"/>
   <path d="m366.31 685.34c-1.6839 0-3.041 1.1047-3.041 2.4775v8.4371c0 1.3728 1.3571 2.4775 3.041 2.4775h10.348c1.6839 0 3.041-1.1047 3.041-2.4775v-8.4371c0-1.3728-1.3571-2.4775-3.041-2.4775h-10.348zm0.92578 1.7291h8.4961c1.0214 0 1.8438 0.67039 1.8438 1.503v6.9277c0 0.83265-0.82236 1.503-1.8438 1.503h-8.4961c-1.0214 0-1.8438-0.6704-1.8438-1.503v-6.9277c0-0.83265 0.82236-1.503 1.8438-1.503z" fill="#ff6f00"/>
   <path d="m605.69 685.21c-0.29874 0-0.53905 0.24071-0.53905 0.53946v5.3656h5.9047v-5.9051h-5.3656zm7.8966 0v5.9051h5.9047v-5.3656c0-0.29875-0.2403-0.53946-0.53905-0.53946h-5.3656zm-8.4356 8.4356v5.3656c0 0.29875 0.24031 0.53946 0.53905 0.53946h5.3656v-5.9051h-5.9047zm8.4356 0v5.9051h5.3656c0.29875 0 0.53905-0.24071 0.53905-0.53946v-5.3656h-5.9047z" fill="#ffeb3b"/>
   <path d="m343 414.63c19.368-0.9602 38.31-0.64514 56.964 0.53571l-1.9643 2.8572-26.786 2.1428-26.964-2.6786z" fill="#ff6f00"/>
  </g>
 </g>
</svg>
