<svg xmlns="http://www.w3.org/2000/svg" width="150" height="97.077" viewBox="0 0 150 97.077"><path d="M270.669,353.414a2.8,2.8,0,0,0-2.076-.813H181.9a2.78,2.78,0,0,0-2.888,2.889v5.78a2.78,2.78,0,0,0,2.888,2.889h86.692a2.781,2.781,0,0,0,2.888-2.889v-5.78A2.8,2.8,0,0,0,270.669,353.414Z" transform="translate(-121.481 -267.081)" fill="#2f3539"/><path d="M9.571,83.122a2.838,2.838,0,0,0-4.153,0L.9,87.638a2.842,2.842,0,0,0,0,4.154l35.491,35.49L.9,162.772a2.841,2.841,0,0,0,0,4.153l4.515,4.514a2.84,2.84,0,0,0,4.153,0l42.082-42.081a2.842,2.842,0,0,0,0-4.155Z" transform="translate(0 -82.219)" fill="#2f3539"/></svg>